<?xml version="1.0" encoding="UTF-8" standalone="no"?>
<!-- Created with Inkscape (http://www.inkscape.org/) -->
<svg
   xmlns:svg="http://www.w3.org/2000/svg"
   xmlns="http://www.w3.org/2000/svg"
   version="1.0"
   width="259.91733"
   height="261.41959"
   id="svg2">
  <defs
     id="defs4" />
  <g
     transform="translate(-178.11173,-317.49567)"
     id="layer1">
    <path
       d="M 208.63281,371.91454 C 207.26558,371.3288 207.16792,370.1081 208.33984,368.25243 C 257.94912,346.67062 282.75378,331.28978 282.75391,322.10986 C 282.85144,319.96166 283.63269,318.44799 285.09766,317.56884 C 292.22643,316.8855 301.94322,320.98705 314.24805,329.87353 C 316.78695,332.21751 317.66586,334.31712 316.88477,336.17236 C 316.29867,337.9304 314.00375,338.95579 310,339.24853 C 300.72252,340.90891 286.41589,345.98703 267.08008,354.4829 C 275.57606,359.75655 280.60535,363.36982 282.16797,365.32275 C 282.55847,367.08076 282.21667,369.37568 281.14258,372.20751 C 278.50574,378.65301 276.74793,387.44207 275.86914,398.5747 C 276.94324,398.2819 284.41394,396.47526 298.28125,393.15478 C 303.84751,391.78776 309.12094,392.56901 314.10156,395.49853 C 317.61703,397.45182 319.22836,399.60026 318.93555,401.94384 C 318.74008,403.21353 317.37289,404.09244 314.83398,404.58056 L 285.09766,409.70751 C 281.77722,410.2936 278.35926,410.9772 274.84375,411.75829 C 274.84364,416.15297 274.55067,428.55531 273.96484,448.96532 C 275.33192,447.89122 279.87293,448.13536 287.58789,449.69775 C 299.11119,452.13927 306.4354,455.75254 309.56055,460.53759 C 310.04868,461.12363 310.39047,461.7584 310.58594,462.44189 C 312.63657,467.61777 313.32016,471.42636 312.63672,473.86767 C 312.05063,476.40682 310.48813,477.82283 307.94922,478.11571 C 305.89829,478.31111 303.60337,477.38338 301.06445,475.33251 C 293.25182,469.47323 285.24402,463.90683 277.04102,458.63329 C 276.06434,458.04746 275.03895,457.21739 273.96484,456.14306 C 272.79286,512.58842 272.30458,545.10792 272.5,553.70165 C 272.49989,566.29931 269.81434,574.20946 264.44336,577.43212 C 262.97841,579.18992 261.66005,579.38523 260.48828,578.01806 C 259.02334,577.43211 257.50967,575.3325 255.94727,571.71923 C 253.99405,565.95751 252.871,562.34423 252.57812,560.87939 C 251.21085,553.55518 252.04092,543.05714 255.06836,529.38525 C 257.02139,520.49857 258.73037,490.8111 260.19531,440.32275 C 249.16007,458.87754 237.53898,474.25838 225.33203,486.46532 C 212.83198,498.96539 201.74801,508.82866 192.08008,516.05517 C 186.31833,520.35209 182.50974,522.40287 180.6543,522.20751 C 178.01756,521.71927 177.43162,520.49857 178.89648,518.5454 C 215.90815,479.48299 241.68937,445.20568 256.24023,415.71337 C 248.5253,417.7643 234.65813,421.91469 214.63867,428.16454 C 205.5566,430.99671 199.01363,432.11975 195.00977,431.53368 C 191.59177,430.94788 187.63669,429.09241 183.14453,425.96728 C 180.01951,423.52601 178.79881,421.27992 179.48242,419.229 C 180.06834,417.37368 181.67967,416.39711 184.31641,416.29931 C 202.48043,414.15102 227.77337,409.56118 260.19531,402.52978 L 260.19531,383.63329 C 259.9999,375.52801 257.50967,367.61787 252.72461,359.90282 C 251.94327,360.09834 244.81437,362.34443 231.33789,366.64111 C 220.59564,370.15693 213.02729,371.91474 208.63281,371.91454 M 349.25781,492.76415 C 349.64825,501.065 348.96465,507.46148 347.20703,511.95361 C 345.742,515.17631 343.25177,514.29741 339.73633,509.31689 C 335.24397,503.65289 332.94905,496.67047 332.85156,488.36962 C 330.6053,463.56504 326.2596,442.03185 319.81445,423.77001 C 318.05648,418.88735 317.42172,415.86001 317.91016,414.68798 C 318.10531,414.29751 318.34945,413.95571 318.64258,413.66259 C 320.00961,412.39321 324.20882,412.83266 331.24023,414.98095 C 333.97444,415.86001 336.31818,416.78774 338.27148,417.76415 C 351.45489,415.02993 365.81034,411.22134 381.33789,406.33837 C 396.47437,400.18619 406.48413,397.79362 411.36719,399.16064 C 423.4763,404.33658 431.4841,408.43814 435.39062,411.46532 C 439.00363,415.27407 438.90597,419.37563 435.09766,423.77001 C 426.69895,432.07093 420.00951,447.89122 415.0293,471.23095 C 420.98607,475.03963 423.96458,477.82283 423.96484,479.58056 C 423.86692,481.72908 422.49974,482.94978 419.86328,483.24267 C 378.2615,486.56306 354.72637,489.73688 349.25781,492.76415 M 347.79297,480.75243 C 362.05058,478.31111 378.55447,474.84432 397.30469,470.35204 C 400.62476,457.36387 403.21265,443.44787 405.06836,428.604 C 405.94702,419.71742 403.16382,415.37172 396.71875,415.56689 C 395.74195,415.66469 394.71656,415.81118 393.64258,416.00634 C 366.20097,422.35414 348.81817,426.55335 341.49414,428.604 C 342.17755,437.68616 344.27716,455.06895 347.79297,480.75243"
       style="font-size:300px;font-family:AR PL ZenKai Uni"
       id="flowRoot2160" />
  </g>
</svg>
