<?xml version="1.0" encoding="UTF-8" standalone="no"?>
<!-- Created with Inkscape (http://www.inkscape.org/) -->

<svg
   xmlns:dc="http://purl.org/dc/elements/1.1/"
   xmlns:cc="http://creativecommons.org/ns#"
   xmlns:rdf="http://www.w3.org/1999/02/22-rdf-syntax-ns#"
   xmlns:svg="http://www.w3.org/2000/svg"
   xmlns="http://www.w3.org/2000/svg"
   xmlns:sodipodi="http://sodipodi.sourceforge.net/DTD/sodipodi-0.dtd"
   xmlns:inkscape="http://www.inkscape.org/namespaces/inkscape"
   width="64"
   height="88"
   id="svg2"
   version="1.1"
   inkscape:version="0.47pre4 r22446"
   sodipodi:docname="MJBamb6.svg">
  <defs
     id="defs4" />
  <sodipodi:namedview
     id="base"
     pagecolor="#ffffff"
     bordercolor="#666666"
     borderopacity="1.0"
     inkscape:pageopacity="0.0"
     inkscape:pageshadow="2"
     inkscape:zoom="1.4"
     inkscape:cx="86.164641"
     inkscape:cy="-95.074389"
     inkscape:document-units="px"
     inkscape:current-layer="layer1"
     showgrid="false"
     inkscape:window-width="855"
     inkscape:window-height="838"
     inkscape:window-x="756"
     inkscape:window-y="107"
     inkscape:window-maximized="0" />
  <metadata
     id="metadata7">
    <rdf:RDF>
      <cc:Work
         rdf:about="">
        <dc:format>image/svg+xml</dc:format>
        <dc:type
           rdf:resource="http://purl.org/dc/dcmitype/StillImage" />
        <dc:title></dc:title>
      </cc:Work>
    </rdf:RDF>
  </metadata>
  <g
     inkscape:label="Layer 1"
     inkscape:groupmode="layer"
     id="layer1"
     transform="translate(-428.85714,-370.93359)">
    <g
       id="use249"
       transform="translate(428.85714,370.93359)">
      <path
         id="path5258"
         d="M 9,0 C 8.47,0 7.96,0.21 7.59,0.59 l -7,7 C 0.21,7.96 0,8.47 0,9 v 77 c 0,1.1 0.9,2 2,2 h 53 c 0.53,0 1.04,-0.21 1.41,-0.59 l 7,-7 C 63.79,80.04 64,79.53 64,79 V 2 C 64,0.9 63.1,0 62,0 H 9 z" />
      <path
         style="fill:#9f9f9f"
         id="path5260"
         d="m 11.75,78.25 -9,9 h 9 H 55 c 0.33,0 0.65,-0.13 0.88,-0.37 l 7,-7 c 0.23,-0.23 0.37,-1.3 0.37,-1.63 h -51.5 z" />
      <path
         style="fill:#d7d7d7"
         id="path5262"
         d="m 8.12,1.12 -7,7 C 0.88,8.35 0.75,8.67 0.75,9 v 66.25 1 9 l 2,2 7,-7 v -4 -1 -74.5 c -0.33,0 -1.4,0.13 -1.63,0.37 z" />
      <path
         style="fill:#bfbfbf"
         id="path5264"
         d="M 1.61,86.89 11.75,76.75 v -0.5 L 1.34,86.66 c 0.08,0.09 0.17,0.16 0.27,0.23 z" />
      <path
         style="fill:#b7b7b7"
         id="path5266"
         d="m 1.93,87.07 9.82,-9.82 v -0.5 L 1.61,86.89 c 0.1,0.07 0.21,0.13 0.32,0.18 z" />
      <path
         style="fill:#afafaf"
         id="path5268"
         d="m 2.3,87.2 9.45,-9.45 v -0.5 l -9.82,9.82 c 0.12,0.05 0.24,0.1 0.37,0.13 z" />
      <path
         style="fill:#a7a7a7"
         id="path5270"
         d="M 11.75,77.75 2.3,87.2 c 0.14,0.03 0.29,0.05 0.45,0.05 l 9,-9 v -0.5 z" />
      <path
         style="fill:#c7c7c7"
         id="path5272"
         d="M 1.34,86.66 11.75,76.25 h -0.5 L 1.11,86.39 c 0.07,0.1 0.14,0.19 0.23,0.27 z" />
      <path
         style="fill:#cdcdcd"
         id="path5274"
         d="M 1.11,86.39 11.25,76.25 h -0.5 l -9.82,9.82 c 0.05,0.11 0.11,0.22 0.18,0.32 z" />
      <path
         style="fill:#d2d2d2"
         id="path5276"
         d="m 0.93,86.07 9.82,-9.82 h -0.5 L 0.8,85.7 c 0.03,0.13 0.08,0.25 0.13,0.37 z" />
      <path
         style="fill:#d7d7d7"
         id="path5278"
         d="m 10.25,76.25 h -0.5 l -9,9 c 0,0.15 0.02,0.3 0.05,0.45 l 9.45,-9.45 z" />
      <path
         style="fill:#f6f6f6"
         id="path5280"
         d="M 63.25,78.25 V 2.75 c 0,-1.1 -0.9,-2 -2,-2 h -50.5 c -1.1,0 -2,0.9 -2,2 v 75.5 c 0,1.1 0.9,2 2,2 h 50.5 c 1.1,0 2,-0.9 2,-2 z" />
      <path
         style="fill:#ffffff"
         id="path5282"
         d="M 8.75,78.25 V 2.75 c 0,-1.1 0.9,-2 2,-2 h -1 c -1.1,0 -2,0.9 -2,2 v 75.5 c 0,1.1 0.9,2 2,2 h 1 c -1.1,0 -2,-0.9 -2,-2 z" />
    </g>
    <path
       style="fill:#006c00"
       d="m 456.38714,411.34359 c 0,-0.6072 -0.9125,-1.1286 -2.2338,-1.3794 l 0,-4.6002 c 1.3213,-0.2508 2.2338,-0.7722 2.2338,-1.3794 0,-0.858 -1.7958,-1.551 -4.015,-1.551 -2.2192,0 -4.015,0.693 -4.015,1.551 0,0.6072 0.9125,1.1286 2.2338,1.3794 l 0,4.6002 c -1.3213,0.2508 -2.2338,0.7722 -2.2338,1.3794 0,0.6072 0.9125,1.1286 2.2338,1.3794 l 0,4.5936 c -1.3213,0.2574 -2.2338,0.7788 -2.2338,1.386 0,0.858 1.7958,1.551 4.015,1.551 2.2192,0 4.015,-0.693 4.015,-1.551 0,-0.6072 -0.9125,-1.1286 -2.2338,-1.3794 l 0,-4.5936 c 1.3213,-0.2574 2.2338,-0.7788 2.2338,-1.386 z m -4.015,-7.9398 c 0.9855,0 1.7812,0.2574 1.7812,0.5808 0,0.2706 -0.5694,0.495 -1.3359,0.561 l 0,3.9204 c 0,0.3036 -0.2044,0.5544 -0.4453,0.5544 -0.2409,0 -0.4453,-0.2508 -0.4453,-0.5544 l 0,-3.9204 c -0.7665,-0.066 -1.3359,-0.2904 -1.3359,-0.561 0,-0.3234 0.7957,-0.5808 1.7812,-0.5808 z m 0,15.8796 c -0.9855,0 -1.7812,-0.2574 -1.7812,-0.5808 0,-0.2706 0.5694,-0.495 1.3359,-0.561 l 0,-3.9204 c 0,-0.3036 0.2044,-0.5544 0.4453,-0.5544 0.2409,0 0.4453,0.2508 0.4453,0.5544 l 0,3.9204 c 0.7665,0.066 1.3359,0.2904 1.3359,0.561 0,0.3234 -0.7957,0.5808 -1.7812,0.5808 z m 0,-7.359 c -1.3578,0 -2.4528,-0.2574 -2.4528,-0.5808 0,-0.3234 1.095,-0.5808 2.4528,-0.5808 1.3578,0 2.4528,0.2574 2.4528,0.5808 0,0.3234 -1.095,0.5808 -2.4528,0.5808 z"
       id="use689" />
    <path
       style="fill:#006c00"
       d="m 468.38714,411.34359 c 0,-0.6072 -0.9125,-1.1286 -2.2338,-1.3794 l 0,-4.6002 c 1.3213,-0.2508 2.2338,-0.7722 2.2338,-1.3794 0,-0.858 -1.7958,-1.551 -4.015,-1.551 -2.2192,0 -4.015,0.693 -4.015,1.551 0,0.6072 0.9125,1.1286 2.2338,1.3794 l 0,4.6002 c -1.3213,0.2508 -2.2338,0.7722 -2.2338,1.3794 0,0.6072 0.9125,1.1286 2.2338,1.3794 l 0,4.5936 c -1.3213,0.2574 -2.2338,0.7788 -2.2338,1.386 0,0.858 1.7958,1.551 4.015,1.551 2.2192,0 4.015,-0.693 4.015,-1.551 0,-0.6072 -0.9125,-1.1286 -2.2338,-1.3794 l 0,-4.5936 c 1.3213,-0.2574 2.2338,-0.7788 2.2338,-1.386 z m -4.015,-7.9398 c 0.9855,0 1.7812,0.2574 1.7812,0.5808 0,0.2706 -0.5694,0.495 -1.3359,0.561 l 0,3.9204 c 0,0.3036 -0.2044,0.5544 -0.4453,0.5544 -0.2409,0 -0.4453,-0.2508 -0.4453,-0.5544 l 0,-3.9204 c -0.7665,-0.066 -1.3359,-0.2904 -1.3359,-0.561 0,-0.3234 0.7957,-0.5808 1.7812,-0.5808 z m 0,15.8796 c -0.9855,0 -1.7812,-0.2574 -1.7812,-0.5808 0,-0.2706 0.5694,-0.495 1.3359,-0.561 l 0,-3.9204 c 0,-0.3036 0.2044,-0.5544 0.4453,-0.5544 0.2409,0 0.4453,0.2508 0.4453,0.5544 l 0,3.9204 c 0.7665,0.066 1.3359,0.2904 1.3359,0.561 0,0.3234 -0.7957,0.5808 -1.7812,0.5808 z m 0,-7.359 c -1.3578,0 -2.4528,-0.2574 -2.4528,-0.5808 0,-0.3234 1.095,-0.5808 2.4528,-0.5808 1.3578,0 2.4528,0.2574 2.4528,0.5808 0,0.3234 -1.095,0.5808 -2.4528,0.5808 z"
       id="use691" />
    <path
       style="fill:#006c00"
       d="m 480.38714,411.34359 c 0,-0.6072 -0.9125,-1.1286 -2.2338,-1.3794 l 0,-4.6002 c 1.3213,-0.2508 2.2338,-0.7722 2.2338,-1.3794 0,-0.858 -1.7958,-1.551 -4.015,-1.551 -2.2192,0 -4.015,0.693 -4.015,1.551 0,0.6072 0.9125,1.1286 2.2338,1.3794 l 0,4.6002 c -1.3213,0.2508 -2.2338,0.7722 -2.2338,1.3794 0,0.6072 0.9125,1.1286 2.2338,1.3794 l 0,4.5936 c -1.3213,0.2574 -2.2338,0.7788 -2.2338,1.386 0,0.858 1.7958,1.551 4.015,1.551 2.2192,0 4.015,-0.693 4.015,-1.551 0,-0.6072 -0.9125,-1.1286 -2.2338,-1.3794 l 0,-4.5936 c 1.3213,-0.2574 2.2338,-0.7788 2.2338,-1.386 z m -4.015,-7.9398 c 0.9855,0 1.7812,0.2574 1.7812,0.5808 0,0.2706 -0.5694,0.495 -1.3359,0.561 l 0,3.9204 c 0,0.3036 -0.2044,0.5544 -0.4453,0.5544 -0.2409,0 -0.4453,-0.2508 -0.4453,-0.5544 l 0,-3.9204 c -0.7665,-0.066 -1.3359,-0.2904 -1.3359,-0.561 0,-0.3234 0.7957,-0.5808 1.7812,-0.5808 z m 0,15.8796 c -0.9855,0 -1.7812,-0.2574 -1.7812,-0.5808 0,-0.2706 0.5694,-0.495 1.3359,-0.561 l 0,-3.9204 c 0,-0.3036 0.2044,-0.5544 0.4453,-0.5544 0.2409,0 0.4453,0.2508 0.4453,0.5544 l 0,3.9204 c 0.7665,0.066 1.3359,0.2904 1.3359,0.561 0,0.3234 -0.7957,0.5808 -1.7812,0.5808 z m 0,-7.359 c -1.3578,0 -2.4528,-0.2574 -2.4528,-0.5808 0,-0.3234 1.095,-0.5808 2.4528,-0.5808 1.3578,0 2.4528,0.2574 2.4528,0.5808 0,0.3234 -1.095,0.5808 -2.4528,0.5808 z"
       id="use693" />
    <path
       style="fill:#006c00"
       d="m 456.38714,430.34359 c 0,-0.6072 -0.9125,-1.1286 -2.2338,-1.3794 l 0,-4.6002 c 1.3213,-0.2508 2.2338,-0.7722 2.2338,-1.3794 0,-0.858 -1.7958,-1.551 -4.015,-1.551 -2.2192,0 -4.015,0.693 -4.015,1.551 0,0.6072 0.9125,1.1286 2.2338,1.3794 l 0,4.6002 c -1.3213,0.2508 -2.2338,0.7722 -2.2338,1.3794 0,0.6072 0.9125,1.1286 2.2338,1.3794 l 0,4.5936 c -1.3213,0.2574 -2.2338,0.7788 -2.2338,1.386 0,0.858 1.7958,1.551 4.015,1.551 2.2192,0 4.015,-0.693 4.015,-1.551 0,-0.6072 -0.9125,-1.1286 -2.2338,-1.3794 l 0,-4.5936 c 1.3213,-0.2574 2.2338,-0.7788 2.2338,-1.386 z m -4.015,-7.9398 c 0.9855,0 1.7812,0.2574 1.7812,0.5808 0,0.2706 -0.5694,0.495 -1.3359,0.561 l 0,3.9204 c 0,0.3036 -0.2044,0.5544 -0.4453,0.5544 -0.2409,0 -0.4453,-0.2508 -0.4453,-0.5544 l 0,-3.9204 c -0.7665,-0.066 -1.3359,-0.2904 -1.3359,-0.561 0,-0.3234 0.7957,-0.5808 1.7812,-0.5808 z m 0,15.8796 c -0.9855,0 -1.7812,-0.2574 -1.7812,-0.5808 0,-0.2706 0.5694,-0.495 1.3359,-0.561 l 0,-3.9204 c 0,-0.3036 0.2044,-0.5544 0.4453,-0.5544 0.2409,0 0.4453,0.2508 0.4453,0.5544 l 0,3.9204 c 0.7665,0.066 1.3359,0.2904 1.3359,0.561 0,0.3234 -0.7957,0.5808 -1.7812,0.5808 z m 0,-7.359 c -1.3578,0 -2.4528,-0.2574 -2.4528,-0.5808 0,-0.3234 1.095,-0.5808 2.4528,-0.5808 1.3578,0 2.4528,0.2574 2.4528,0.5808 0,0.3234 -1.095,0.5808 -2.4528,0.5808 z"
       id="use695" />
    <path
       style="fill:#006c00"
       d="m 468.38714,430.34359 c 0,-0.6072 -0.9125,-1.1286 -2.2338,-1.3794 l 0,-4.6002 c 1.3213,-0.2508 2.2338,-0.7722 2.2338,-1.3794 0,-0.858 -1.7958,-1.551 -4.015,-1.551 -2.2192,0 -4.015,0.693 -4.015,1.551 0,0.6072 0.9125,1.1286 2.2338,1.3794 l 0,4.6002 c -1.3213,0.2508 -2.2338,0.7722 -2.2338,1.3794 0,0.6072 0.9125,1.1286 2.2338,1.3794 l 0,4.5936 c -1.3213,0.2574 -2.2338,0.7788 -2.2338,1.386 0,0.858 1.7958,1.551 4.015,1.551 2.2192,0 4.015,-0.693 4.015,-1.551 0,-0.6072 -0.9125,-1.1286 -2.2338,-1.3794 l 0,-4.5936 c 1.3213,-0.2574 2.2338,-0.7788 2.2338,-1.386 z m -4.015,-7.9398 c 0.9855,0 1.7812,0.2574 1.7812,0.5808 0,0.2706 -0.5694,0.495 -1.3359,0.561 l 0,3.9204 c 0,0.3036 -0.2044,0.5544 -0.4453,0.5544 -0.2409,0 -0.4453,-0.2508 -0.4453,-0.5544 l 0,-3.9204 c -0.7665,-0.066 -1.3359,-0.2904 -1.3359,-0.561 0,-0.3234 0.7957,-0.5808 1.7812,-0.5808 z m 0,15.8796 c -0.9855,0 -1.7812,-0.2574 -1.7812,-0.5808 0,-0.2706 0.5694,-0.495 1.3359,-0.561 l 0,-3.9204 c 0,-0.3036 0.2044,-0.5544 0.4453,-0.5544 0.2409,0 0.4453,0.2508 0.4453,0.5544 l 0,3.9204 c 0.7665,0.066 1.3359,0.2904 1.3359,0.561 0,0.3234 -0.7957,0.5808 -1.7812,0.5808 z m 0,-7.359 c -1.3578,0 -2.4528,-0.2574 -2.4528,-0.5808 0,-0.3234 1.095,-0.5808 2.4528,-0.5808 1.3578,0 2.4528,0.2574 2.4528,0.5808 0,0.3234 -1.095,0.5808 -2.4528,0.5808 z"
       id="use697" />
    <path
       style="fill:#006c00"
       d="m 480.38714,430.34359 c 0,-0.6072 -0.9125,-1.1286 -2.2338,-1.3794 l 0,-4.6002 c 1.3213,-0.2508 2.2338,-0.7722 2.2338,-1.3794 0,-0.858 -1.7958,-1.551 -4.015,-1.551 -2.2192,0 -4.015,0.693 -4.015,1.551 0,0.6072 0.9125,1.1286 2.2338,1.3794 l 0,4.6002 c -1.3213,0.2508 -2.2338,0.7722 -2.2338,1.3794 0,0.6072 0.9125,1.1286 2.2338,1.3794 l 0,4.5936 c -1.3213,0.2574 -2.2338,0.7788 -2.2338,1.386 0,0.858 1.7958,1.551 4.015,1.551 2.2192,0 4.015,-0.693 4.015,-1.551 0,-0.6072 -0.9125,-1.1286 -2.2338,-1.3794 l 0,-4.5936 c 1.3213,-0.2574 2.2338,-0.7788 2.2338,-1.386 z m -4.015,-7.9398 c 0.9855,0 1.7812,0.2574 1.7812,0.5808 0,0.2706 -0.5694,0.495 -1.3359,0.561 l 0,3.9204 c 0,0.3036 -0.2044,0.5544 -0.4453,0.5544 -0.2409,0 -0.4453,-0.2508 -0.4453,-0.5544 l 0,-3.9204 c -0.7665,-0.066 -1.3359,-0.2904 -1.3359,-0.561 0,-0.3234 0.7957,-0.5808 1.7812,-0.5808 z m 0,15.8796 c -0.9855,0 -1.7812,-0.2574 -1.7812,-0.5808 0,-0.2706 0.5694,-0.495 1.3359,-0.561 l 0,-3.9204 c 0,-0.3036 0.2044,-0.5544 0.4453,-0.5544 0.2409,0 0.4453,0.2508 0.4453,0.5544 l 0,3.9204 c 0.7665,0.066 1.3359,0.2904 1.3359,0.561 0,0.3234 -0.7957,0.5808 -1.7812,0.5808 z m 0,-7.359 c -1.3578,0 -2.4528,-0.2574 -2.4528,-0.5808 0,-0.3234 1.095,-0.5808 2.4528,-0.5808 1.3578,0 2.4528,0.2574 2.4528,0.5808 0,0.3234 -1.095,0.5808 -2.4528,0.5808 z"
       id="use699" />
    <path
       style="fill:#9c0000"
       d="m 468.38714,392.34359 c 0,-0.6072 -0.9125,-1.1286 -2.2338,-1.3794 l 0,-4.6002 c 1.3213,-0.2508 2.2338,-0.7722 2.2338,-1.3794 0,-0.858 -1.7958,-1.551 -4.015,-1.551 -2.2192,0 -4.015,0.693 -4.015,1.551 0,0.6072 0.9125,1.1286 2.2338,1.3794 l 0,4.6002 c -1.3213,0.2508 -2.2338,0.7722 -2.2338,1.3794 0,0.6072 0.9125,1.1286 2.2338,1.3794 l 0,4.5936 c -1.3213,0.2574 -2.2338,0.7788 -2.2338,1.386 0,0.858 1.7958,1.551 4.015,1.551 2.2192,0 4.015,-0.693 4.015,-1.551 0,-0.6072 -0.9125,-1.1286 -2.2338,-1.3794 l 0,-4.5936 c 1.3213,-0.2574 2.2338,-0.7788 2.2338,-1.386 z m -4.015,-7.9398 c 0.9855,0 1.7812,0.2574 1.7812,0.5808 0,0.2706 -0.5694,0.495 -1.3359,0.561 l 0,3.9204 c 0,0.3036 -0.2044,0.5544 -0.4453,0.5544 -0.2409,0 -0.4453,-0.2508 -0.4453,-0.5544 l 0,-3.9204 c -0.7665,-0.066 -1.3359,-0.2904 -1.3359,-0.561 0,-0.3234 0.7957,-0.5808 1.7812,-0.5808 z m 0,15.8796 c -0.9855,0 -1.7812,-0.2574 -1.7812,-0.5808 0,-0.2706 0.5694,-0.495 1.3359,-0.561 l 0,-3.9204 c 0,-0.3036 0.2044,-0.5544 0.4453,-0.5544 0.2409,0 0.4453,0.2508 0.4453,0.5544 l 0,3.9204 c 0.7665,0.066 1.3359,0.2904 1.3359,0.561 0,0.3234 -0.7957,0.5808 -1.7812,0.5808 z m 0,-7.359 c -1.3578,0 -2.4528,-0.2574 -2.4528,-0.5808 0,-0.3234 1.095,-0.5808 2.4528,-0.5808 1.3578,0 2.4528,0.2574 2.4528,0.5808 0,0.3234 -1.095,0.5808 -2.4528,0.5808 z"
       id="use713" />
  </g>
</svg>
