<?xml version="1.0" encoding="UTF-8" standalone="no"?>
<!-- Created with Inkscape (http://www.inkscape.org/) -->

<svg
   xmlns:svg="http://www.w3.org/2000/svg"
   xmlns="http://www.w3.org/2000/svg"
   xmlns:xlink="http://www.w3.org/1999/xlink"
   version="1.1"
   width="64"
   height="88"
   id="svg2">
  <defs
     id="defs4" />
  <g
     transform="translate(-443.78185,-289.13357)"
     id="layer1">
    <use
       transform="translate(530.21429,326.1479)"
       id="use189"
       x="0"
       y="0"
       width="2752"
       height="176"
       xlink:href="#bt1" />
    <g
       transform="translate(443.78185,289.13357)"
       id="use189-7">
      <path
         d="M 9,0 C 8.47,0 7.96,0.21 7.59,0.59 l -7,7 C 0.21,7.96 0,8.47 0,9 v 77 c 0,1.1 0.9,2 2,2 h 53 c 0.53,0 1.04,-0.21 1.41,-0.59 l 7,-7 C 63.79,80.04 64,79.53 64,79 V 2 C 64,0.9 63.1,0 62,0 H 9 z"
         id="path7391" />
      <path
         d="m 11.75,78.25 -9,9 h 9 H 55 c 0.33,0 0.65,-0.13 0.88,-0.37 l 7,-7 c 0.23,-0.23 0.37,-1.3 0.37,-1.63 h -51.5 z"
         id="path7393"
         style="fill:#9f9f9f" />
      <path
         d="m 8.12,1.12 -7,7 C 0.88,8.35 0.75,8.67 0.75,9 v 66.25 1 9 l 2,2 7,-7 v -4 -1 -74.5 c -0.33,0 -1.4,0.13 -1.63,0.37 z"
         id="path7395"
         style="fill:#d7d7d7" />
      <path
         d="M 1.61,86.89 11.75,76.75 v -0.5 L 1.34,86.66 c 0.08,0.09 0.17,0.16 0.27,0.23 z"
         id="path7397"
         style="fill:#bfbfbf" />
      <path
         d="m 1.93,87.07 9.82,-9.82 v -0.5 L 1.61,86.89 c 0.1,0.07 0.21,0.13 0.32,0.18 z"
         id="path7399"
         style="fill:#b7b7b7" />
      <path
         d="m 2.3,87.2 9.45,-9.45 v -0.5 l -9.82,9.82 c 0.12,0.05 0.24,0.1 0.37,0.13 z"
         id="path7401"
         style="fill:#afafaf" />
      <path
         d="M 11.75,77.75 2.3,87.2 c 0.14,0.03 0.29,0.05 0.45,0.05 l 9,-9 v -0.5 z"
         id="path7403"
         style="fill:#a7a7a7" />
      <path
         d="M 1.34,86.66 11.75,76.25 h -0.5 L 1.11,86.39 c 0.07,0.1 0.14,0.19 0.23,0.27 z"
         id="path7405"
         style="fill:#c7c7c7" />
      <path
         d="M 1.11,86.39 11.25,76.25 h -0.5 l -9.82,9.82 c 0.05,0.11 0.11,0.22 0.18,0.32 z"
         id="path7407"
         style="fill:#cdcdcd" />
      <path
         d="m 0.93,86.07 9.82,-9.82 h -0.5 L 0.8,85.7 c 0.03,0.13 0.08,0.25 0.13,0.37 z"
         id="path7409"
         style="fill:#d2d2d2" />
      <path
         d="m 10.25,76.25 h -0.5 l -9,9 c 0,0.15 0.02,0.3 0.05,0.45 l 9.45,-9.45 z"
         id="path7411"
         style="fill:#d7d7d7" />
      <path
         d="M 63.25,78.25 V 2.75 c 0,-1.1 -0.9,-2 -2,-2 h -50.5 c -1.1,0 -2,0.9 -2,2 v 75.5 c 0,1.1 0.9,2 2,2 h 50.5 c 1.1,0 2,-0.9 2,-2 z"
         id="path7413"
         style="fill:#f6f6f6" />
      <path
         d="M 8.75,78.25 V 2.75 c 0,-1.1 0.9,-2 2,-2 h -1 c -1.1,0 -2,0.9 -2,2 v 75.5 c 0,1.1 0.9,2 2,2 h 1 c -1.1,0 -2,-0.9 -2,-2 z"
         id="path7415"
         style="fill:#ffffff" />
    </g>
    <path
       d="m 493.18185,329.63357 c 0,7.7 -6.2,13.9 -13.9,13.9 -7.7,0 -13.9,-6.2 -13.9,-13.9 0,-7.7 6.2,-13.9 13.9,-13.9 7.7,0 13.9,6.2 13.9,13.9 z"
       id="path867"
       style="fill:none;stroke:#10106c;stroke-width:0.75" />
    <circle
       cx="42"
       cy="40.5"
       r="6.5"
       transform="translate(443.78185,289.13357)"
       id="circle869"
       style="fill:none;stroke:#10106c;stroke-width:1.60000002" />
    <circle
       cx="29"
       cy="40.5"
       r="6.5"
       transform="translate(443.78185,289.13357)"
       id="circle871"
       style="fill:none;stroke:#10106c;stroke-width:1.60000002" />
    <circle
       cx="35.5"
       cy="34"
       r="6.5"
       transform="translate(443.78185,289.13357)"
       id="circle873"
       style="fill:none;stroke:#10106c;stroke-width:1.60000002" />
    <circle
       cx="35.5"
       cy="47"
       r="6.5"
       transform="translate(443.78185,289.13357)"
       id="circle875"
       style="fill:none;stroke:#10106c;stroke-width:1.60000002" />
    <path
       d="m 488.58185,329.63357 c 0,5.1 -4.2,9.3 -9.3,9.3 -5.1,0 -9.3,-4.2 -9.3,-9.3 0,-5.1 4.2,-9.3 9.3,-9.3 5.1,0 9.3,4.2 9.3,9.3 z"
       id="path877"
       style="fill:none;stroke:#10106c;stroke-width:0.75" />
    <path
       d="m 495.98185,329.63357 c 0,9.2 -7.5,16.7 -16.7,16.7 -9.2,0 -16.7,-7.5 -16.7,-16.7 0,-9.2 7.5,-16.7 16.7,-16.7 9.2,0 16.7,7.5 16.7,16.7 z"
       id="path879"
       style="fill:none;stroke:#ba0000;stroke-width:2" />
    <path
       d="m 498.78185,329.63357 c 0,10.8 -8.7,19.5 -19.5,19.5 -10.8,0 -19.5,-8.7 -19.5,-19.5 0,-10.8 8.7,-19.5 19.5,-19.5 10.8,0 19.5,8.7 19.5,19.5 z"
       id="path881"
       style="fill:none;stroke:#10106c;stroke-width:0.75" />
  </g>
</svg>
