<?xml version="1.0" encoding="UTF-8" standalone="no"?>
<!-- Created with Inkscape (http://www.inkscape.org/) -->

<svg
   xmlns:dc="http://purl.org/dc/elements/1.1/"
   xmlns:cc="http://creativecommons.org/ns#"
   xmlns:rdf="http://www.w3.org/1999/02/22-rdf-syntax-ns#"
   xmlns:svg="http://www.w3.org/2000/svg"
   xmlns="http://www.w3.org/2000/svg"
   xmlns:sodipodi="http://sodipodi.sourceforge.net/DTD/sodipodi-0.dtd"
   xmlns:inkscape="http://www.inkscape.org/namespaces/inkscape"
   width="64"
   height="88"
   id="svg2"
   version="1.1"
   inkscape:version="0.47pre4 r22446"
   sodipodi:docname="MJChar6.svg">
  <defs
     id="defs4">
    <inkscape:perspective
       id="perspective4925"
       inkscape:persp3d-origin="0.5 : 0.33333333 : 1"
       inkscape:vp_z="1 : 0.5 : 1"
       inkscape:vp_y="0 : 1000 : 0"
       inkscape:vp_x="0 : 0.5 : 1"
       sodipodi:type="inkscape:persp3d" />
  </defs>
  <sodipodi:namedview
     id="base"
     pagecolor="#ffffff"
     bordercolor="#666666"
     borderopacity="1.0"
     inkscape:pageopacity="0.0"
     inkscape:pageshadow="2"
     inkscape:zoom="1.4"
     inkscape:cx="1.0217814"
     inkscape:cy="28.211331"
     inkscape:document-units="px"
     inkscape:current-layer="layer1"
     showgrid="false"
     inkscape:window-width="855"
     inkscape:window-height="838"
     inkscape:window-x="756"
     inkscape:window-y="107"
     inkscape:window-maximized="0" />
  <metadata
     id="metadata7">
    <rdf:RDF>
      <cc:Work
         rdf:about="">
        <dc:format>image/svg+xml</dc:format>
        <dc:type
           rdf:resource="http://purl.org/dc/dcmitype/StillImage" />
        <dc:title></dc:title>
      </cc:Work>
    </rdf:RDF>
  </metadata>
  <g
     inkscape:label="Layer 1"
     inkscape:groupmode="layer"
     id="layer1"
     transform="translate(-514,-494.21931)">
    <g
       id="use231"
       transform="translate(514,494.21931)">
      <path
         id="path4603"
         d="M 9,0 C 8.47,0 7.96,0.21 7.59,0.59 l -7,7 C 0.21,7.96 0,8.47 0,9 v 77 c 0,1.1 0.9,2 2,2 h 53 c 0.53,0 1.04,-0.21 1.41,-0.59 l 7,-7 C 63.79,80.04 64,79.53 64,79 V 2 C 64,0.9 63.1,0 62,0 H 9 z" />
      <path
         style="fill:#9f9f9f"
         id="path4605"
         d="m 11.75,78.25 -9,9 h 9 H 55 c 0.33,0 0.65,-0.13 0.88,-0.37 l 7,-7 c 0.23,-0.23 0.37,-1.3 0.37,-1.63 h -51.5 z" />
      <path
         style="fill:#d7d7d7"
         id="path4607"
         d="m 8.12,1.12 -7,7 C 0.88,8.35 0.75,8.67 0.75,9 v 66.25 1 9 l 2,2 7,-7 v -4 -1 -74.5 c -0.33,0 -1.4,0.13 -1.63,0.37 z" />
      <path
         style="fill:#bfbfbf"
         id="path4609"
         d="M 1.61,86.89 11.75,76.75 v -0.5 L 1.34,86.66 c 0.08,0.09 0.17,0.16 0.27,0.23 z" />
      <path
         style="fill:#b7b7b7"
         id="path4611"
         d="m 1.93,87.07 9.82,-9.82 v -0.5 L 1.61,86.89 c 0.1,0.07 0.21,0.13 0.32,0.18 z" />
      <path
         style="fill:#afafaf"
         id="path4613"
         d="m 2.3,87.2 9.45,-9.45 v -0.5 l -9.82,9.82 c 0.12,0.05 0.24,0.1 0.37,0.13 z" />
      <path
         style="fill:#a7a7a7"
         id="path4615"
         d="M 11.75,77.75 2.3,87.2 c 0.14,0.03 0.29,0.05 0.45,0.05 l 9,-9 v -0.5 z" />
      <path
         style="fill:#c7c7c7"
         id="path4617"
         d="M 1.34,86.66 11.75,76.25 h -0.5 L 1.11,86.39 c 0.07,0.1 0.14,0.19 0.23,0.27 z" />
      <path
         style="fill:#cdcdcd"
         id="path4619"
         d="M 1.11,86.39 11.25,76.25 h -0.5 l -9.82,9.82 c 0.05,0.11 0.11,0.22 0.18,0.32 z" />
      <path
         style="fill:#d2d2d2"
         id="path4621"
         d="m 0.93,86.07 9.82,-9.82 h -0.5 L 0.8,85.7 c 0.03,0.13 0.08,0.25 0.13,0.37 z" />
      <path
         style="fill:#d7d7d7"
         id="path4623"
         d="m 10.25,76.25 h -0.5 l -9,9 c 0,0.15 0.02,0.3 0.05,0.45 l 9.45,-9.45 z" />
      <path
         style="fill:#f6f6f6"
         id="path4625"
         d="M 63.25,78.25 V 2.75 c 0,-1.1 -0.9,-2 -2,-2 h -50.5 c -1.1,0 -2,0.9 -2,2 v 75.5 c 0,1.1 0.9,2 2,2 h 50.5 c 1.1,0 2,-0.9 2,-2 z" />
      <path
         style="fill:#ffffff"
         id="path4627"
         d="M 8.75,78.25 V 2.75 c 0,-1.1 0.9,-2 2,-2 h -1 c -1.1,0 -2,0.9 -2,2 v 75.5 c 0,1.1 0.9,2 2,2 h 1 c -1.1,0 -2,-0.9 -2,-2 z" />
    </g>
    <g
       id="use373"
       transform="translate(533,535.21931)">
      <path
         style="fill:#ba0000"
         id="path4393"
         d="m 18.01,0.14 c 0,0 -4.39,3.33 -4.78,3.63 C 12.91,3.44 10.03,0.5 10.03,0.5 l 2.22,8.92 0.6,-0.03 c 0.75,-4.76 4.35,-6.63 5.33,-7.05 0.14,0.2 0.26,0.42 0.26,0.72 0,0.09 -0.01,0.18 -0.02,0.28 -0.21,1.67 -2.39,4.64 -6.68,7.21 l -0.31,0.18 0.81,1.01 0.2,-0.06 C 12.5,11.66 19.03,9.62 22.8,9.8 L 23.94,9.85 22.98,9.22 C 22.9,9.17 21.03,7.97 19.05,8.19 19.33,7.56 21.31,5.63 23.2,4.03 L 23.51,3.77 18.19,0 18.01,0.14 z" />
      <path
         style="fill:#ba0000"
         id="path4395"
         d="m 33.78,24.64 c -0.17,-0.17 -4.21,-4.28 -5.63,-5.01 -0.53,-0.27 -1.71,-0.18 -5.75,0.16 0,0 -0.17,0.01 -0.43,0.04 1.19,-2.79 2.72,-5.86 3.57,-6.25 l 0.55,-0.25 -2.13,-2.09 -0.21,0.03 c -5.11,0.87 -13.08,2.09 -14.11,1.9 L 9.29,13.1 9.17,13.43 c -0.2,0.56 0.32,4.93 0.86,7.37 C 5.45,21.2 0,21.66 0,21.66 l 0.3,0.56 0.68,1.27 0.32,-0.09 c 1.72,-0.51 2.52,-0.57 4.6,-0.54 0.19,0.49 2.6,6.77 2.6,6.77 l 0.79,-0.2 c 0,0 -0.69,-5.69 -0.8,-6.52 0.78,0.02 7.99,0.22 9.67,0.26 -1.09,0.92 -3.56,3.02 -3.56,3.02 L 15,26.9 c 0,0 5.15,-1.76 5.41,-1.85 0.25,0.1 4.3,1.65 4.3,1.65 0,0 -2.13,-2.57 -2.81,-3.38 3.78,0.2 4.75,0.42 5.01,0.74 0.33,0.39 0.5,0.96 0.5,1.6 0,1.16 -0.58,2.57 -1.8,3.73 -1.82,-0.46 -5.17,-2.34 -5.21,-2.36 l -0.52,0.62 5.08,6.35 0.24,-0.05 c 3.82,-0.78 8.44,-8.48 8.63,-8.81 L 34,24.87 33.78,24.64 z M 21.02,16.65 c -1.22,0.16 -2.77,0.37 -3.21,0.43 0,-0.33 0,-1.17 0,-2 1.62,-0.13 3.11,-0.25 3.49,-0.29 -0.05,0.27 -0.15,0.98 -0.28,1.86 z m -4.93,-1.43 c 0.02,0.84 0.04,1.75 0.05,2.06 -1.41,0.16 -2.6,0.26 -3.55,0.3 0.1,-0.62 0.19,-1.31 0.3,-2.1 0.24,-0.02 1.62,-0.13 3.2,-0.26 z m -4.06,5.43 c 0.08,-0.35 0.17,-0.76 0.26,-1.24 1.3,-0.24 2.61,-0.46 3.89,-0.63 0.01,0.48 0.03,1.1 0.04,1.52 -0.25,0.01 -1.96,0.16 -4.19,0.35 z m 5.77,-0.48 c 0,-0.48 0,-1.18 0,-1.6 0.98,-0.1 1.36,-0.08 1.96,-0.02 l 0.96,0.06 c -0.07,0.46 -0.14,0.92 -0.2,1.35 -1.09,0.08 -2.33,0.18 -2.72,0.21 z" />
    </g>
    <path
       style="fill:#20208c"
       d="m 557.2,505.91931 0,0 c -0.2,0.4 -1.5,1.9 -8.3,7.6 -0.1,-0.7 -0.2,-1.6 -0.2,-1.6 -0.2,-1.9 -0.4,-4.1 -0.8,-6.5 l -0.1,-0.3 -3.2,0.3 0,0.3 c 0,0.6 0,1.1 0,1.7 0,3.3 0.3,6.2 0.9,8.9 -0.3,0.2 -10,8.2 -10,8.2 l 0.3,0.3 1.9,1.8 c 0,0 7.9,-6.9 8.6,-7.6 0.7,2.2 1.6,4 2.7,5 2,2 4.2,1.7 7,1.3 2,-0.3 4.3,-0.6 7,-0.2 l 0.5,0.1 -0.6,-2.8 c 0,-0.6 -0.3,-1.1 -0.7,-1.5 -1.3,-0.9 -3.8,-0.4 -6.5,0.1 -1.3,0.3 -2.7,0.5 -3.9,0.6 -1.3,-1.2 -2.1,-2.8 -2.6,-5.2 7.5,-6.2 10.3,-7.8 11.3,-8.1 l 0.2,-0.1 0,-0.3 c 0,-0.2 0,-0.3 0,-0.4 0,-1.8 -0.9,-2.8 -1.7,-3 -0.5,0.1 -1.3,0.3 -1.8,1.4 z"
       id="path809" />
  </g>
</svg>
