<?xml version="1.0" encoding="UTF-8" standalone="no"?>
<!-- Created with Inkscape (http://www.inkscape.org/) -->

<svg
   xmlns:dc="http://purl.org/dc/elements/1.1/"
   xmlns:cc="http://creativecommons.org/ns#"
   xmlns:rdf="http://www.w3.org/1999/02/22-rdf-syntax-ns#"
   xmlns:svg="http://www.w3.org/2000/svg"
   xmlns="http://www.w3.org/2000/svg"
   xmlns:xlink="http://www.w3.org/1999/xlink"
   xmlns:sodipodi="http://sodipodi.sourceforge.net/DTD/sodipodi-0.dtd"
   xmlns:inkscape="http://www.inkscape.org/namespaces/inkscape"
   width="64"
   height="88"
   id="svg2"
   version="1.1"
   inkscape:version="0.47pre4 r22446"
   sodipodi:docname="New document 1">
  <defs
     id="defs4">
    <inkscape:perspective
       sodipodi:type="inkscape:persp3d"
       inkscape:vp_x="0 : 526.18109 : 1"
       inkscape:vp_y="0 : 1000 : 0"
       inkscape:vp_z="744.09448 : 526.18109 : 1"
       inkscape:persp3d-origin="372.04724 : 350.78739 : 1"
       id="perspective10" />
    <inkscape:perspective
       id="perspective3273"
       inkscape:persp3d-origin="0.5 : 0.33333333 : 1"
       inkscape:vp_z="1 : 0.5 : 1"
       inkscape:vp_y="0 : 1000 : 0"
       inkscape:vp_x="0 : 0.5 : 1"
       sodipodi:type="inkscape:persp3d" />
    <inkscape:perspective
       id="perspective3351"
       inkscape:persp3d-origin="0.5 : 0.33333333 : 1"
       inkscape:vp_z="1 : 0.5 : 1"
       inkscape:vp_y="0 : 1000 : 0"
       inkscape:vp_x="0 : 0.5 : 1"
       sodipodi:type="inkscape:persp3d" />
  </defs>
  <sodipodi:namedview
     id="base"
     pagecolor="#ffffff"
     bordercolor="#666666"
     borderopacity="1.0"
     inkscape:pageopacity="0.0"
     inkscape:pageshadow="2"
     inkscape:zoom="2.8"
     inkscape:cx="161.40232"
     inkscape:cy="65.992106"
     inkscape:document-units="px"
     inkscape:current-layer="layer1"
     showgrid="false"
     inkscape:window-width="1680"
     inkscape:window-height="1027"
     inkscape:window-x="0"
     inkscape:window-y="0"
     inkscape:window-maximized="1" />
  <metadata
     id="metadata7">
    <rdf:RDF>
      <cc:Work
         rdf:about="">
        <dc:format>image/svg+xml</dc:format>
        <dc:type
           rdf:resource="http://purl.org/dc/dcmitype/StillImage" />
        <dc:title></dc:title>
      </cc:Work>
    </rdf:RDF>
  </metadata>
  <g
     inkscape:label="Layer 1"
     inkscape:groupmode="layer"
     id="layer1"
     transform="translate(-423,-374.43361)">
    <use
       height="176"
       width="2752"
       y="0"
       x="0"
       transform="translate(575.92857,346.57647)"
       xlink:href="#dots"
       id="use437" />
    <use
       height="176"
       width="2752"
       y="0"
       x="0"
       transform="translate(585.92857,365.57647)"
       xlink:href="#dots2"
       id="use441" />
    <g
       id="use193-0"
       transform="translate(423,374.43361)">
      <path
         id="path3239-4"
         d="M 9,0 C 8.47,0 7.96,0.21 7.59,0.59 l -7,7 C 0.21,7.96 0,8.47 0,9 v 77 c 0,1.1 0.9,2 2,2 h 53 c 0.53,0 1.04,-0.21 1.41,-0.59 l 7,-7 C 63.79,80.04 64,79.53 64,79 V 2 C 64,0.9 63.1,0 62,0 H 9 z" />
      <path
         id="path3241-8"
         d="m 11.75,78.25 -9,9 h 9 H 55 c 0.33,0 0.65,-0.13 0.88,-0.37 l 7,-7 c 0.23,-0.23 0.37,-1.3 0.37,-1.63 h -51.5 z"
         style="fill:#9f9f9f" />
      <path
         id="path3243-7"
         d="m 8.12,1.12 -7,7 C 0.88,8.35 0.75,8.67 0.75,9 v 66.25 1 9 l 2,2 7,-7 v -4 -1 -74.5 c -0.33,0 -1.4,0.13 -1.63,0.37 z"
         style="fill:#d7d7d7" />
      <path
         id="path3245-1"
         d="M 1.61,86.89 11.75,76.75 v -0.5 L 1.34,86.66 c 0.08,0.09 0.17,0.16 0.27,0.23 z"
         style="fill:#bfbfbf" />
      <path
         id="path3247-7"
         d="m 1.93,87.07 9.82,-9.82 v -0.5 L 1.61,86.89 c 0.1,0.07 0.21,0.13 0.32,0.18 z"
         style="fill:#b7b7b7" />
      <path
         id="path3249-2"
         d="m 2.3,87.2 9.45,-9.45 v -0.5 l -9.82,9.82 c 0.12,0.05 0.24,0.1 0.37,0.13 z"
         style="fill:#afafaf" />
      <path
         id="path3251-7"
         d="M 11.75,77.75 2.3,87.2 c 0.14,0.03 0.29,0.05 0.45,0.05 l 9,-9 v -0.5 z"
         style="fill:#a7a7a7" />
      <path
         id="path3253-2"
         d="M 1.34,86.66 11.75,76.25 h -0.5 L 1.11,86.39 c 0.07,0.1 0.14,0.19 0.23,0.27 z"
         style="fill:#c7c7c7" />
      <path
         id="path3255-2"
         d="M 1.11,86.39 11.25,76.25 h -0.5 l -9.82,9.82 c 0.05,0.11 0.11,0.22 0.18,0.32 z"
         style="fill:#cdcdcd" />
      <path
         id="path3257-6"
         d="m 0.93,86.07 9.82,-9.82 h -0.5 L 0.8,85.7 c 0.03,0.13 0.08,0.25 0.13,0.37 z"
         style="fill:#d2d2d2" />
      <path
         id="path3259-1"
         d="m 10.25,76.25 h -0.5 l -9,9 c 0,0.15 0.02,0.3 0.05,0.45 l 9.45,-9.45 z"
         style="fill:#d7d7d7" />
      <path
         id="path3261-0"
         d="M 63.25,78.25 V 2.75 c 0,-1.1 -0.9,-2 -2,-2 h -50.5 c -1.1,0 -2,0.9 -2,2 v 75.5 c 0,1.1 0.9,2 2,2 h 50.5 c 1.1,0 2,-0.9 2,-2 z"
         style="fill:#f6f6f6" />
      <path
         id="path3263-6"
         d="M 8.75,78.25 V 2.75 c 0,-1.1 0.9,-2 2,-2 h -1 c -1.1,0 -2,0.9 -2,2 v 75.5 c 0,1.1 0.9,2 2,2 h 1 c -1.1,0 -2,-0.9 -2,-2 z"
         style="fill:#ffffff" />
    </g>
    <g
       id="use437-1"
       transform="translate(439.5,386.93361)">
      <path
         id="path3304"
         d="m 9,1.42 c -4.18,0 -7.58,3.4 -7.58,7.58 0,4.18 3.4,7.58 7.58,7.58 4.18,0 7.58,-3.4 7.58,-7.58 0,-4.18 -3.4,-7.58 -7.58,-7.58 z m 0,13.69 c -1.36,0 -2.49,-0.97 -2.75,-2.25 0.78,0.56 1.72,0.89 2.75,0.89 1.03,0 1.97,-0.34 2.75,-0.89 -0.26,1.28 -1.39,2.25 -2.75,2.25 z M 9,2.89 c 1.36,0 2.49,0.97 2.75,2.25 C 10.97,4.59 10.03,4.25 9,4.25 7.97,4.25 7.03,4.59 6.25,5.14 6.51,3.86 7.64,2.89 9,2.89 z M 12.75,9 c 0,0.57 -0.14,1.11 -0.37,1.59 C 12.04,9.92 11.51,9.37 10.85,9 11.51,8.63 12.04,8.08 12.38,7.41 12.61,7.89 12.75,8.43 12.75,9 z M 5.25,9 C 5.25,8.43 5.39,7.89 5.62,7.41 5.96,8.08 6.49,8.63 7.15,9 6.49,9.37 5.96,9.92 5.62,10.59 5.39,10.11 5.25,9.57 5.25,9 z m 6.34,2.7 C 10.57,11.43 9.77,10.6 9.56,9.56 c 1.04,0.21 1.87,1.01 2.14,2.03 -0.04,0.04 -0.07,0.07 -0.11,0.11 z M 6.3,11.59 C 6.57,10.57 7.4,9.77 8.45,9.56 8.24,10.6 7.44,11.43 6.42,11.7 6.37,11.66 6.34,11.63 6.3,11.59 z M 6.41,6.3 C 7.43,6.57 8.23,7.4 8.44,8.45 7.4,8.23 6.57,7.43 6.3,6.41 6.34,6.37 6.37,6.34 6.41,6.3 z M 11.7,6.41 C 11.43,7.43 10.6,8.23 9.56,8.44 9.77,7.39 10.57,6.57 11.59,6.29 11.63,6.34 11.66,6.37 11.7,6.41 z M 9,7.15 C 8.63,6.49 8.08,5.96 7.41,5.62 7.89,5.39 8.43,5.25 9,5.25 c 0.57,0 1.11,0.14 1.59,0.37 C 9.92,5.96 9.37,6.49 9,7.15 z m 0,3.7 c 0.37,0.66 0.92,1.19 1.59,1.53 C 10.1,12.61 9.57,12.75 9,12.75 8.43,12.75 7.89,12.61 7.41,12.38 8.08,12.04 8.63,11.51 9,10.85 z m -3.86,0.9 C 3.86,11.49 2.89,10.36 2.89,9 2.89,7.64 3.86,6.51 5.14,6.25 4.59,7.03 4.25,7.97 4.25,9 c 0,1.03 0.34,1.97 0.89,2.75 z m 7.72,-5.5 c 1.28,0.26 2.25,1.39 2.25,2.75 0,1.36 -0.97,2.49 -2.25,2.75 0.56,-0.78 0.89,-1.72 0.89,-2.75 0,-1.03 -0.34,-1.97 -0.89,-2.75 z m 2.15,0.08 C 14.42,5.73 13.63,5.34 12.76,5.24 12.65,4.36 12.27,3.58 11.67,2.99 c 1.48,0.66 2.68,1.86 3.34,3.34 z M 6.33,2.99 C 5.73,3.58 5.35,4.37 5.24,5.24 4.36,5.35 3.58,5.73 2.99,6.33 3.65,4.85 4.85,3.65 6.33,2.99 z m -3.34,8.68 c 0.59,0.6 1.38,0.99 2.25,1.09 0.11,0.88 0.49,1.66 1.09,2.25 C 4.85,14.35 3.65,13.15 2.99,11.67 z m 8.68,3.34 c 0.6,-0.59 0.99,-1.38 1.09,-2.25 0.88,-0.11 1.66,-0.49 2.25,-1.09 -0.66,1.48 -1.86,2.68 -3.34,3.34 z"
         style="fill:#10106c" />
      <path
         id="path3306"
         d="M 9,0 C 4.04,0 0,4.04 0,9 c 0,4.96 4.04,9 9,9 4.96,0 9,-4.04 9,-9 C 18,4.04 13.96,0 9,0 z M 9,17 C 4.59,17 1,13.41 1,9 1,4.59 4.59,1 9,1 c 4.41,0 8,3.59 8,8 0,4.41 -3.59,8 -8,8 z"
         style="fill:#10106c" />
    </g>
    <g
       id="use441-5"
       transform="translate(449.5,405.93361)">
      <path
         id="path3298"
         d="m 9,1.42 c -4.18,0 -7.58,3.4 -7.58,7.58 0,4.18 3.4,7.58 7.58,7.58 4.18,0 7.58,-3.4 7.58,-7.58 0,-4.18 -3.4,-7.58 -7.58,-7.58 z m 0,13.69 c -1.36,0 -2.49,-0.97 -2.75,-2.25 0.78,0.56 1.72,0.89 2.75,0.89 1.03,0 1.97,-0.34 2.75,-0.89 -0.26,1.28 -1.39,2.25 -2.75,2.25 z M 9,2.89 c 1.36,0 2.49,0.97 2.75,2.25 C 10.97,4.59 10.03,4.25 9,4.25 7.97,4.25 7.03,4.59 6.25,5.14 6.51,3.86 7.64,2.89 9,2.89 z M 12.75,9 c 0,0.57 -0.14,1.11 -0.37,1.59 C 12.04,9.92 11.51,9.37 10.85,9 11.51,8.63 12.04,8.08 12.38,7.41 12.61,7.89 12.75,8.43 12.75,9 z M 5.25,9 C 5.25,8.43 5.39,7.89 5.62,7.41 5.96,8.08 6.49,8.63 7.15,9 6.49,9.37 5.96,9.92 5.62,10.59 5.39,10.11 5.25,9.57 5.25,9 z m 6.34,2.7 C 10.57,11.43 9.77,10.6 9.56,9.56 c 1.04,0.21 1.87,1.01 2.14,2.03 -0.04,0.04 -0.07,0.07 -0.11,0.11 z M 6.3,11.59 C 6.57,10.57 7.4,9.77 8.45,9.56 8.24,10.6 7.44,11.43 6.42,11.7 6.37,11.66 6.34,11.63 6.3,11.59 z M 6.41,6.3 C 7.43,6.57 8.23,7.4 8.44,8.45 7.4,8.23 6.57,7.43 6.3,6.41 6.34,6.37 6.37,6.34 6.41,6.3 z M 11.7,6.41 C 11.43,7.43 10.6,8.23 9.56,8.44 9.77,7.39 10.57,6.57 11.59,6.29 11.63,6.34 11.66,6.37 11.7,6.41 z M 9,7.15 C 8.63,6.49 8.08,5.96 7.41,5.62 7.89,5.39 8.43,5.25 9,5.25 c 0.57,0 1.11,0.14 1.59,0.37 C 9.92,5.96 9.37,6.49 9,7.15 z m 0,3.7 c 0.37,0.66 0.92,1.19 1.59,1.53 C 10.1,12.61 9.57,12.75 9,12.75 8.43,12.75 7.89,12.61 7.41,12.38 8.08,12.04 8.63,11.51 9,10.85 z m -3.86,0.9 C 3.86,11.49 2.89,10.36 2.89,9 2.89,7.64 3.86,6.51 5.14,6.25 4.59,7.03 4.25,7.97 4.25,9 c 0,1.03 0.34,1.97 0.89,2.75 z m 7.72,-5.5 c 1.28,0.26 2.25,1.39 2.25,2.75 0,1.36 -0.97,2.49 -2.25,2.75 0.56,-0.78 0.89,-1.72 0.89,-2.75 0,-1.03 -0.34,-1.97 -0.89,-2.75 z m 2.15,0.08 C 14.42,5.73 13.63,5.34 12.76,5.24 12.65,4.36 12.27,3.58 11.67,2.99 c 1.48,0.66 2.68,1.86 3.34,3.34 z M 6.33,2.99 C 5.73,3.58 5.35,4.37 5.24,5.24 4.36,5.35 3.58,5.73 2.99,6.33 3.65,4.85 4.85,3.65 6.33,2.99 z m -3.34,8.68 c 0.59,0.6 1.38,0.99 2.25,1.09 0.11,0.88 0.49,1.66 1.09,2.25 C 4.85,14.35 3.65,13.15 2.99,11.67 z m 8.68,3.34 c 0.6,-0.59 0.99,-1.38 1.09,-2.25 0.88,-0.11 1.66,-0.49 2.25,-1.09 -0.66,1.48 -1.86,2.68 -3.34,3.34 z"
         style="fill:#9c0000" />
      <path
         id="path3300"
         d="M 9,0 C 4.04,0 0,4.04 0,9 c 0,4.96 4.04,9 9,9 4.96,0 9,-4.04 9,-9 C 18,4.04 13.96,0 9,0 z M 9,17 C 4.59,17 1,13.41 1,9 1,4.59 4.59,1 9,1 c 4.41,0 8,3.59 8,8 0,4.41 -3.59,8 -8,8 z"
         style="fill:#9c0000" />
    </g>
    <g
       id="use445-9"
       transform="translate(459.5,424.93361)">
      <path
         id="path3233-4"
         d="m 9,1.42 c -4.18,0 -7.58,3.4 -7.58,7.58 0,4.18 3.4,7.58 7.58,7.58 4.18,0 7.58,-3.4 7.58,-7.58 0,-4.18 -3.4,-7.58 -7.58,-7.58 z m 0,13.69 c -1.36,0 -2.49,-0.97 -2.75,-2.25 0.78,0.56 1.72,0.89 2.75,0.89 1.03,0 1.97,-0.34 2.75,-0.89 -0.26,1.28 -1.39,2.25 -2.75,2.25 z M 9,2.89 c 1.36,0 2.49,0.97 2.75,2.25 C 10.97,4.59 10.03,4.25 9,4.25 7.97,4.25 7.03,4.59 6.25,5.14 6.51,3.86 7.64,2.89 9,2.89 z M 12.75,9 c 0,0.57 -0.14,1.11 -0.37,1.59 C 12.04,9.92 11.51,9.37 10.85,9 11.51,8.63 12.04,8.08 12.38,7.41 12.61,7.89 12.75,8.43 12.75,9 z M 5.25,9 C 5.25,8.43 5.39,7.89 5.62,7.41 5.96,8.08 6.49,8.63 7.15,9 6.49,9.37 5.96,9.92 5.62,10.59 5.39,10.11 5.25,9.57 5.25,9 z m 6.34,2.7 C 10.57,11.43 9.77,10.6 9.56,9.56 c 1.04,0.21 1.87,1.01 2.14,2.03 -0.04,0.04 -0.07,0.07 -0.11,0.11 z M 6.3,11.59 C 6.57,10.57 7.4,9.77 8.45,9.56 8.24,10.6 7.44,11.43 6.42,11.7 6.37,11.66 6.34,11.63 6.3,11.59 z M 6.41,6.3 C 7.43,6.57 8.23,7.4 8.44,8.45 7.4,8.23 6.57,7.43 6.3,6.41 6.34,6.37 6.37,6.34 6.41,6.3 z M 11.7,6.41 C 11.43,7.43 10.6,8.23 9.56,8.44 9.77,7.39 10.57,6.57 11.59,6.29 11.63,6.34 11.66,6.37 11.7,6.41 z M 9,7.15 C 8.63,6.49 8.08,5.96 7.41,5.62 7.89,5.39 8.43,5.25 9,5.25 c 0.57,0 1.11,0.14 1.59,0.37 C 9.92,5.96 9.37,6.49 9,7.15 z m 0,3.7 c 0.37,0.66 0.92,1.19 1.59,1.53 C 10.1,12.61 9.57,12.75 9,12.75 8.43,12.75 7.89,12.61 7.41,12.38 8.08,12.04 8.63,11.51 9,10.85 z m -3.86,0.9 C 3.86,11.49 2.89,10.36 2.89,9 2.89,7.64 3.86,6.51 5.14,6.25 4.59,7.03 4.25,7.97 4.25,9 c 0,1.03 0.34,1.97 0.89,2.75 z m 7.72,-5.5 c 1.28,0.26 2.25,1.39 2.25,2.75 0,1.36 -0.97,2.49 -2.25,2.75 0.56,-0.78 0.89,-1.72 0.89,-2.75 0,-1.03 -0.34,-1.97 -0.89,-2.75 z m 2.15,0.08 C 14.42,5.73 13.63,5.34 12.76,5.24 12.65,4.36 12.27,3.58 11.67,2.99 c 1.48,0.66 2.68,1.86 3.34,3.34 z M 6.33,2.99 C 5.73,3.58 5.35,4.37 5.24,5.24 4.36,5.35 3.58,5.73 2.99,6.33 3.65,4.85 4.85,3.65 6.33,2.99 z m -3.34,8.68 c 0.59,0.6 1.38,0.99 2.25,1.09 0.11,0.88 0.49,1.66 1.09,2.25 C 4.85,14.35 3.65,13.15 2.99,11.67 z m 8.68,3.34 c 0.6,-0.59 0.99,-1.38 1.09,-2.25 0.88,-0.11 1.66,-0.49 2.25,-1.09 -0.66,1.48 -1.86,2.68 -3.34,3.34 z"
         style="fill:#10106c" />
      <path
         id="path3235-9"
         d="M 9,0 C 4.04,0 0,4.04 0,9 c 0,4.96 4.04,9 9,9 4.96,0 9,-4.04 9,-9 C 18,4.04 13.96,0 9,0 z M 9,17 C 4.59,17 1,13.41 1,9 1,4.59 4.59,1 9,1 c 4.41,0 8,3.59 8,8 0,4.41 -3.59,8 -8,8 z"
         style="fill:#10106c" />
    </g>
  </g>
</svg>
