<?xml version="1.0" encoding="UTF-8" standalone="no"?>
<!-- Created with Inkscape (http://www.inkscape.org/) -->

<svg
   xmlns:dc="http://purl.org/dc/elements/1.1/"
   xmlns:cc="http://creativecommons.org/ns#"
   xmlns:rdf="http://www.w3.org/1999/02/22-rdf-syntax-ns#"
   xmlns:svg="http://www.w3.org/2000/svg"
   xmlns="http://www.w3.org/2000/svg"
   xmlns:sodipodi="http://sodipodi.sourceforge.net/DTD/sodipodi-0.dtd"
   xmlns:inkscape="http://www.inkscape.org/namespaces/inkscape"
   width="64"
   height="88"
   id="svg2"
   version="1.1"
   inkscape:version="0.47pre4 r22446"
   sodipodi:docname="MJWEast.svg">
  <defs
     id="defs4">
    <inkscape:perspective
       id="perspective4298"
       inkscape:persp3d-origin="0.5 : 0.33333333 : 1"
       inkscape:vp_z="1 : 0.5 : 1"
       inkscape:vp_y="0 : 1000 : 0"
       inkscape:vp_x="0 : 0.5 : 1"
       sodipodi:type="inkscape:persp3d" />
  </defs>
  <sodipodi:namedview
     id="base"
     pagecolor="#ffffff"
     bordercolor="#666666"
     borderopacity="1.0"
     inkscape:pageopacity="0.0"
     inkscape:pageshadow="2"
     inkscape:zoom="1.4"
     inkscape:cx="-17.835359"
     inkscape:cy="81.211331"
     inkscape:document-units="px"
     inkscape:current-layer="layer1"
     showgrid="false"
     inkscape:window-width="855"
     inkscape:window-height="838"
     inkscape:window-x="756"
     inkscape:window-y="107"
     inkscape:window-maximized="0" />
  <metadata
     id="metadata7">
    <rdf:RDF>
      <cc:Work
         rdf:about="">
        <dc:format>image/svg+xml</dc:format>
        <dc:type
           rdf:resource="http://purl.org/dc/dcmitype/StillImage" />
        <dc:title></dc:title>
      </cc:Work>
    </rdf:RDF>
  </metadata>
  <g
     inkscape:label="Layer 1"
     inkscape:groupmode="layer"
     id="layer1"
     transform="translate(-532.85714,-547.21931)">
    <g
       id="use215"
       transform="translate(532.85714,547.21931)">
      <path
         id="path4236"
         d="M 9,0 C 8.47,0 7.96,0.21 7.59,0.59 l -7,7 C 0.21,7.96 0,8.47 0,9 v 77 c 0,1.1 0.9,2 2,2 h 53 c 0.53,0 1.04,-0.21 1.41,-0.59 l 7,-7 C 63.79,80.04 64,79.53 64,79 V 2 C 64,0.9 63.1,0 62,0 H 9 z" />
      <path
         style="fill:#9f9f9f"
         id="path4238"
         d="m 11.75,78.25 -9,9 h 9 H 55 c 0.33,0 0.65,-0.13 0.88,-0.37 l 7,-7 c 0.23,-0.23 0.37,-1.3 0.37,-1.63 h -51.5 z" />
      <path
         style="fill:#d7d7d7"
         id="path4240"
         d="m 8.12,1.12 -7,7 C 0.88,8.35 0.75,8.67 0.75,9 v 66.25 1 9 l 2,2 7,-7 v -4 -1 -74.5 c -0.33,0 -1.4,0.13 -1.63,0.37 z" />
      <path
         style="fill:#bfbfbf"
         id="path4242"
         d="M 1.61,86.89 11.75,76.75 v -0.5 L 1.34,86.66 c 0.08,0.09 0.17,0.16 0.27,0.23 z" />
      <path
         style="fill:#b7b7b7"
         id="path4244"
         d="m 1.93,87.07 9.82,-9.82 v -0.5 L 1.61,86.89 c 0.1,0.07 0.21,0.13 0.32,0.18 z" />
      <path
         style="fill:#afafaf"
         id="path4246"
         d="m 2.3,87.2 9.45,-9.45 v -0.5 l -9.82,9.82 c 0.12,0.05 0.24,0.1 0.37,0.13 z" />
      <path
         style="fill:#a7a7a7"
         id="path4248"
         d="M 11.75,77.75 2.3,87.2 c 0.14,0.03 0.29,0.05 0.45,0.05 l 9,-9 v -0.5 z" />
      <path
         style="fill:#c7c7c7"
         id="path4250"
         d="M 1.34,86.66 11.75,76.25 h -0.5 L 1.11,86.39 c 0.07,0.1 0.14,0.19 0.23,0.27 z" />
      <path
         style="fill:#cdcdcd"
         id="path4252"
         d="M 1.11,86.39 11.25,76.25 h -0.5 l -9.82,9.82 c 0.05,0.11 0.11,0.22 0.18,0.32 z" />
      <path
         style="fill:#d2d2d2"
         id="path4254"
         d="m 0.93,86.07 9.82,-9.82 h -0.5 L 0.8,85.7 c 0.03,0.13 0.08,0.25 0.13,0.37 z" />
      <path
         style="fill:#d7d7d7"
         id="path4256"
         d="m 10.25,76.25 h -0.5 l -9,9 c 0,0.15 0.02,0.3 0.05,0.45 l 9.45,-9.45 z" />
      <path
         style="fill:#f6f6f6"
         id="path4258"
         d="M 63.25,78.25 V 2.75 c 0,-1.1 -0.9,-2 -2,-2 h -50.5 c -1.1,0 -2,0.9 -2,2 v 75.5 c 0,1.1 0.9,2 2,2 h 50.5 c 1.1,0 2,-0.9 2,-2 z" />
      <path
         style="fill:#ffffff"
         id="path4260"
         d="M 8.75,78.25 V 2.75 c 0,-1.1 0.9,-2 2,-2 h -1 c -1.1,0 -2,0.9 -2,2 v 75.5 c 0,1.1 0.9,2 2,2 h 1 c -1.1,0 -2,-0.9 -2,-2 z" />
    </g>
    <path
       style="fill:#ba0000"
       d="m 562.65714,557.41931 c -0.4,0.4 -0.5,1 -0.5,1.7 0,1.3 0.4,2.9 0.6,3.5 0,0 0.3,7 0.4,7.8 -0.9,0.1 -2.5,0.2 -3.1,0.4 l -0.8,0 c -1.7,0.1 -3.3,0.2 -4,0.9 l -0.3,0.3 0.3,0.4 c 0.5,0.6 0.7,2.3 0.9,4.1 0.5,3.7 1.1,8.3 4.1,10.1 l 0.6,0.3 0,-0.7 c 0,0 0.1,-0.3 0.1,-0.7 0,-0.3 -0.1,-0.8 -0.2,-1.5 0.8,0.1 2.5,0.3 3.1,0.3 0.1,0.8 2.7,33.4 2.7,33.4 l 1,0 c 0,0 1.1,-32.2 1.1,-33.2 0.7,0 3.8,0.1 4.7,0.2 -0.2,0.6 -1,3.1 -1,3.1 l 1.4,-1.3 c 0.4,-0.3 9.1,-8.2 7.9,-13.4 -0.4,-1.7 -1.8,-2.9 -4.1,-3.5 l -0.1,0 h -0.1 c -1.3,0 -5.3,0.1 -8.3,0.3 0.1,-2.6 0.1,-4 0.1,-4.7 0,-0.6 0,-0.7 0,-0.8 0,0 0,-0.1 0,-0.1 0,-0.5 0.5,-1.2 0.9,-1.7 0.4,-0.6 0.9,-1.1 0.9,-1.7 0,-0.2 -0.1,-0.4 -0.2,-0.6 -0.6,-0.9 -5,-3.2 -6.9,-3.4 -0.6,0.1 -1,0.2 -1.2,0.5 z m 0.1,16.4 c 0,0 0.2,0 0.5,0 0,0.9 0.3,7.2 0.4,8.1 -0.8,-0.1 -2.7,-0.3 -3.3,-0.3 -0.3,-1.3 -0.4,-2.7 -0.5,-4.1 -0.1,-1.2 -0.2,-2.4 -0.4,-3.5 0.9,0 3.3,-0.2 3.3,-0.2 z m 6.1,3.1 c 0,0 0.1,-2.4 0.1,-3.2 1.3,0.2 3,0.3 4.6,0.3 0,0 1.2,0 1.8,0 0,0.4 -0.1,0.9 -0.1,0.9 -0.2,2.2 -0.5,4.8 -1.4,7.4 -0.6,0 -4.3,-0.2 -5.1,-0.3 0,-0.7 0.1,-5.1 0.1,-5.1 z"
       id="path899" />
  </g>
</svg>
