<?xml version="1.0" encoding="UTF-8" standalone="no"?>
<!-- Created with Inkscape (http://www.inkscape.org/) -->

<svg
   xmlns:dc="http://purl.org/dc/elements/1.1/"
   xmlns:cc="http://creativecommons.org/ns#"
   xmlns:rdf="http://www.w3.org/1999/02/22-rdf-syntax-ns#"
   xmlns:svg="http://www.w3.org/2000/svg"
   xmlns="http://www.w3.org/2000/svg"
   xmlns:sodipodi="http://sodipodi.sourceforge.net/DTD/sodipodi-0.dtd"
   xmlns:inkscape="http://www.inkscape.org/namespaces/inkscape"
   width="64"
   height="88"
   id="svg2"
   version="1.1"
   inkscape:version="0.47pre4 r22446"
   sodipodi:docname="MJBamb4.svg">
  <defs
     id="defs4" />
  <sodipodi:namedview
     id="base"
     pagecolor="#ffffff"
     bordercolor="#666666"
     borderopacity="1.0"
     inkscape:pageopacity="0.0"
     inkscape:pageshadow="2"
     inkscape:zoom="1.4"
     inkscape:cx="48.593211"
     inkscape:cy="-41.645819"
     inkscape:document-units="px"
     inkscape:current-layer="layer1"
     showgrid="false"
     inkscape:window-width="855"
     inkscape:window-height="838"
     inkscape:window-x="756"
     inkscape:window-y="107"
     inkscape:window-maximized="0" />
  <metadata
     id="metadata7">
    <rdf:RDF>
      <cc:Work
         rdf:about="">
        <dc:format>image/svg+xml</dc:format>
        <dc:type
           rdf:resource="http://purl.org/dc/dcmitype/StillImage" />
        <dc:title></dc:title>
      </cc:Work>
    </rdf:RDF>
  </metadata>
  <g
     inkscape:label="Layer 1"
     inkscape:groupmode="layer"
     id="layer1"
     transform="translate(-466.42857,-424.36216)">
    <g
       id="use245"
       transform="translate(466.42857,424.36216)">
      <path
         id="path5176"
         d="M 9,0 C 8.47,0 7.96,0.21 7.59,0.59 l -7,7 C 0.21,7.96 0,8.47 0,9 v 77 c 0,1.1 0.9,2 2,2 h 53 c 0.53,0 1.04,-0.21 1.41,-0.59 l 7,-7 C 63.79,80.04 64,79.53 64,79 V 2 C 64,0.9 63.1,0 62,0 H 9 z" />
      <path
         style="fill:#9f9f9f"
         id="path5178"
         d="m 11.75,78.25 -9,9 h 9 H 55 c 0.33,0 0.65,-0.13 0.88,-0.37 l 7,-7 c 0.23,-0.23 0.37,-1.3 0.37,-1.63 h -51.5 z" />
      <path
         style="fill:#d7d7d7"
         id="path5180"
         d="m 8.12,1.12 -7,7 C 0.88,8.35 0.75,8.67 0.75,9 v 66.25 1 9 l 2,2 7,-7 v -4 -1 -74.5 c -0.33,0 -1.4,0.13 -1.63,0.37 z" />
      <path
         style="fill:#bfbfbf"
         id="path5182"
         d="M 1.61,86.89 11.75,76.75 v -0.5 L 1.34,86.66 c 0.08,0.09 0.17,0.16 0.27,0.23 z" />
      <path
         style="fill:#b7b7b7"
         id="path5184"
         d="m 1.93,87.07 9.82,-9.82 v -0.5 L 1.61,86.89 c 0.1,0.07 0.21,0.13 0.32,0.18 z" />
      <path
         style="fill:#afafaf"
         id="path5186"
         d="m 2.3,87.2 9.45,-9.45 v -0.5 l -9.82,9.82 c 0.12,0.05 0.24,0.1 0.37,0.13 z" />
      <path
         style="fill:#a7a7a7"
         id="path5188"
         d="M 11.75,77.75 2.3,87.2 c 0.14,0.03 0.29,0.05 0.45,0.05 l 9,-9 v -0.5 z" />
      <path
         style="fill:#c7c7c7"
         id="path5190"
         d="M 1.34,86.66 11.75,76.25 h -0.5 L 1.11,86.39 c 0.07,0.1 0.14,0.19 0.23,0.27 z" />
      <path
         style="fill:#cdcdcd"
         id="path5192"
         d="M 1.11,86.39 11.25,76.25 h -0.5 l -9.82,9.82 c 0.05,0.11 0.11,0.22 0.18,0.32 z" />
      <path
         style="fill:#d2d2d2"
         id="path5194"
         d="m 0.93,86.07 9.82,-9.82 h -0.5 L 0.8,85.7 c 0.03,0.13 0.08,0.25 0.13,0.37 z" />
      <path
         style="fill:#d7d7d7"
         id="path5196"
         d="m 10.25,76.25 h -0.5 l -9,9 c 0,0.15 0.02,0.3 0.05,0.45 l 9.45,-9.45 z" />
      <path
         style="fill:#f6f6f6"
         id="path5198"
         d="M 63.25,78.25 V 2.75 c 0,-1.1 -0.9,-2 -2,-2 h -50.5 c -1.1,0 -2,0.9 -2,2 v 75.5 c 0,1.1 0.9,2 2,2 h 50.5 c 1.1,0 2,-0.9 2,-2 z" />
      <path
         style="fill:#ffffff"
         id="path5200"
         d="M 8.75,78.25 V 2.75 c 0,-1.1 0.9,-2 2,-2 h -1 c -1.1,0 -2,0.9 -2,2 v 75.5 c 0,1.1 0.9,2 2,2 h 1 c -1.1,0 -2,-0.9 -2,-2 z" />
    </g>
    <path
       style="fill:#006c00"
       d="m 494.43857,447.34966 c 0,-0.851 -1.1375,-1.58175 -2.7846,-1.93325 l 0,-6.44725 c 1.6471,-0.3515 2.7846,-1.08225 2.7846,-1.93325 0,-1.2025 -2.2386,-2.17375 -5.005,-2.17375 -2.7664,0 -5.005,0.97125 -5.005,2.17375 0,0.851 1.1375,1.58175 2.7846,1.93325 l 0,6.44725 c -1.6471,0.3515 -2.7846,1.08225 -2.7846,1.93325 0,0.851 1.1375,1.58175 2.7846,1.93325 l 0,6.438 c -1.6471,0.36075 -2.7846,1.0915 -2.7846,1.9425 0,1.2025 2.2386,2.17375 5.005,2.17375 2.7664,0 5.005,-0.97125 5.005,-2.17375 0,-0.851 -1.1375,-1.58175 -2.7846,-1.93325 l 0,-6.438 c 1.6471,-0.36075 2.7846,-1.0915 2.7846,-1.9425 z m -5.005,-11.12775 c 1.2285,0 2.2204,0.36075 2.2204,0.814 0,0.37925 -0.7098,0.69375 -1.6653,0.78625 l 0,5.4945 c 0,0.4255 -0.2548,0.777 -0.5551,0.777 -0.3003,0 -0.5551,-0.3515 -0.5551,-0.777 l 0,-5.4945 c -0.9555,-0.0925 -1.6653,-0.407 -1.6653,-0.78625 0,-0.45325 0.9919,-0.814 2.2204,-0.814 z m 0,22.2555 c -1.2285,0 -2.2204,-0.36075 -2.2204,-0.814 0,-0.37925 0.7098,-0.69375 1.6653,-0.78625 l 0,-5.4945 c 0,-0.4255 0.2548,-0.777 0.5551,-0.777 0.3003,0 0.5551,0.3515 0.5551,0.777 l 0,5.4945 c 0.9555,0.0925 1.6653,0.407 1.6653,0.78625 0,0.45325 -0.9919,0.814 -2.2204,0.814 z m 0,-10.31375 c -1.6926,0 -3.0576,-0.36075 -3.0576,-0.814 0,-0.45325 1.365,-0.814 3.0576,-0.814 1.6926,0 3.0576,0.36075 3.0576,0.814 0,0.45325 -1.365,0.814 -3.0576,0.814 z"
       id="use645" />
    <path
       style="fill:#006c00"
       d="m 494.43857,482.34966 c 0,-0.851 -1.1375,-1.58175 -2.7846,-1.93325 l 0,-6.44725 c 1.6471,-0.3515 2.7846,-1.08225 2.7846,-1.93325 0,-1.2025 -2.2386,-2.17375 -5.005,-2.17375 -2.7664,0 -5.005,0.97125 -5.005,2.17375 0,0.851 1.1375,1.58175 2.7846,1.93325 l 0,6.44725 c -1.6471,0.3515 -2.7846,1.08225 -2.7846,1.93325 0,0.851 1.1375,1.58175 2.7846,1.93325 l 0,6.438 c -1.6471,0.36075 -2.7846,1.0915 -2.7846,1.9425 0,1.2025 2.2386,2.17375 5.005,2.17375 2.7664,0 5.005,-0.97125 5.005,-2.17375 0,-0.851 -1.1375,-1.58175 -2.7846,-1.93325 l 0,-6.438 c 1.6471,-0.36075 2.7846,-1.0915 2.7846,-1.9425 z m -5.005,-11.12775 c 1.2285,0 2.2204,0.36075 2.2204,0.814 0,0.37925 -0.7098,0.69375 -1.6653,0.78625 l 0,5.4945 c 0,0.4255 -0.2548,0.777 -0.5551,0.777 -0.3003,0 -0.5551,-0.3515 -0.5551,-0.777 l 0,-5.4945 c -0.9555,-0.0925 -1.6653,-0.407 -1.6653,-0.78625 0,-0.45325 0.9919,-0.814 2.2204,-0.814 z m 0,22.2555 c -1.2285,0 -2.2204,-0.36075 -2.2204,-0.814 0,-0.37925 0.7098,-0.69375 1.6653,-0.78625 l 0,-5.4945 c 0,-0.4255 0.2548,-0.777 0.5551,-0.777 0.3003,0 0.5551,0.3515 0.5551,0.777 l 0,5.4945 c 0.9555,0.0925 1.6653,0.407 1.6653,0.78625 0,0.45325 -0.9919,0.814 -2.2204,0.814 z m 0,-10.31375 c -1.6926,0 -3.0576,-0.36075 -3.0576,-0.814 0,-0.45325 1.365,-0.814 3.0576,-0.814 1.6926,0 3.0576,0.36075 3.0576,0.814 0,0.45325 -1.365,0.814 -3.0576,0.814 z"
       id="use647" />
    <path
       style="fill:#9c0000"
       d="m 506.93857,464.84966 c 0,-0.851 -1.1375,-1.58175 -2.7846,-1.93325 l 0,-6.44725 c 1.6471,-0.3515 2.7846,-1.08225 2.7846,-1.93325 0,-1.2025 -2.2386,-2.17375 -5.005,-2.17375 -2.7664,0 -5.005,0.97125 -5.005,2.17375 0,0.851 1.1375,1.58175 2.7846,1.93325 l 0,6.44725 c -1.6471,0.3515 -2.7846,1.08225 -2.7846,1.93325 0,0.851 1.1375,1.58175 2.7846,1.93325 l 0,6.438 c -1.6471,0.36075 -2.7846,1.0915 -2.7846,1.9425 0,1.2025 2.2386,2.17375 5.005,2.17375 2.7664,0 5.005,-0.97125 5.005,-2.17375 0,-0.851 -1.1375,-1.58175 -2.7846,-1.93325 l 0,-6.438 c 1.6471,-0.36075 2.7846,-1.0915 2.7846,-1.9425 z m -5.005,-11.12775 c 1.2285,0 2.2204,0.36075 2.2204,0.814 0,0.37925 -0.7098,0.69375 -1.6653,0.78625 l 0,5.4945 c 0,0.4255 -0.2548,0.777 -0.5551,0.777 -0.3003,0 -0.5551,-0.3515 -0.5551,-0.777 l 0,-5.4945 c -0.9555,-0.0925 -1.6653,-0.407 -1.6653,-0.78625 0,-0.45325 0.9919,-0.814 2.2204,-0.814 z m 0,22.2555 c -1.2285,0 -2.2204,-0.36075 -2.2204,-0.814 0,-0.37925 0.7098,-0.69375 1.6653,-0.78625 l 0,-5.4945 c 0,-0.4255 0.2548,-0.777 0.5551,-0.777 0.3003,0 0.5551,0.3515 0.5551,0.777 l 0,5.4945 c 0.9555,0.0925 1.6653,0.407 1.6653,0.78625 0,0.45325 -0.9919,0.814 -2.2204,0.814 z m 0,-10.31375 c -1.6926,0 -3.0576,-0.36075 -3.0576,-0.814 0,-0.45325 1.365,-0.814 3.0576,-0.814 1.6926,0 3.0576,0.36075 3.0576,0.814 0,0.45325 -1.365,0.814 -3.0576,0.814 z"
       id="use655" />
    <path
       style="fill:#006c00"
       d="m 519.43857,447.34966 c 0,-0.851 -1.1375,-1.58175 -2.7846,-1.93325 l 0,-6.44725 c 1.6471,-0.3515 2.7846,-1.08225 2.7846,-1.93325 0,-1.2025 -2.2386,-2.17375 -5.005,-2.17375 -2.7664,0 -5.005,0.97125 -5.005,2.17375 0,0.851 1.1375,1.58175 2.7846,1.93325 l 0,6.44725 c -1.6471,0.3515 -2.7846,1.08225 -2.7846,1.93325 0,0.851 1.1375,1.58175 2.7846,1.93325 l 0,6.438 c -1.6471,0.36075 -2.7846,1.0915 -2.7846,1.9425 0,1.2025 2.2386,2.17375 5.005,2.17375 2.7664,0 5.005,-0.97125 5.005,-2.17375 0,-0.851 -1.1375,-1.58175 -2.7846,-1.93325 l 0,-6.438 c 1.6471,-0.36075 2.7846,-1.0915 2.7846,-1.9425 z m -5.005,-11.12775 c 1.2285,0 2.2204,0.36075 2.2204,0.814 0,0.37925 -0.7098,0.69375 -1.6653,0.78625 l 0,5.4945 c 0,0.4255 -0.2548,0.777 -0.5551,0.777 -0.3003,0 -0.5551,-0.3515 -0.5551,-0.777 l 0,-5.4945 c -0.9555,-0.0925 -1.6653,-0.407 -1.6653,-0.78625 0,-0.45325 0.9919,-0.814 2.2204,-0.814 z m 0,22.2555 c -1.2285,0 -2.2204,-0.36075 -2.2204,-0.814 0,-0.37925 0.7098,-0.69375 1.6653,-0.78625 l 0,-5.4945 c 0,-0.4255 0.2548,-0.777 0.5551,-0.777 0.3003,0 0.5551,0.3515 0.5551,0.777 l 0,5.4945 c 0.9555,0.0925 1.6653,0.407 1.6653,0.78625 0,0.45325 -0.9919,0.814 -2.2204,0.814 z m 0,-10.31375 c -1.6926,0 -3.0576,-0.36075 -3.0576,-0.814 0,-0.45325 1.365,-0.814 3.0576,-0.814 1.6926,0 3.0576,0.36075 3.0576,0.814 0,0.45325 -1.365,0.814 -3.0576,0.814 z"
       id="use657" />
    <path
       style="fill:#006c00"
       d="m 519.43857,482.34966 c 0,-0.851 -1.1375,-1.58175 -2.7846,-1.93325 l 0,-6.44725 c 1.6471,-0.3515 2.7846,-1.08225 2.7846,-1.93325 0,-1.2025 -2.2386,-2.17375 -5.005,-2.17375 -2.7664,0 -5.005,0.97125 -5.005,2.17375 0,0.851 1.1375,1.58175 2.7846,1.93325 l 0,6.44725 c -1.6471,0.3515 -2.7846,1.08225 -2.7846,1.93325 0,0.851 1.1375,1.58175 2.7846,1.93325 l 0,6.438 c -1.6471,0.36075 -2.7846,1.0915 -2.7846,1.9425 0,1.2025 2.2386,2.17375 5.005,2.17375 2.7664,0 5.005,-0.97125 5.005,-2.17375 0,-0.851 -1.1375,-1.58175 -2.7846,-1.93325 l 0,-6.438 c 1.6471,-0.36075 2.7846,-1.0915 2.7846,-1.9425 z m -5.005,-11.12775 c 1.2285,0 2.2204,0.36075 2.2204,0.814 0,0.37925 -0.7098,0.69375 -1.6653,0.78625 l 0,5.4945 c 0,0.4255 -0.2548,0.777 -0.5551,0.777 -0.3003,0 -0.5551,-0.3515 -0.5551,-0.777 l 0,-5.4945 c -0.9555,-0.0925 -1.6653,-0.407 -1.6653,-0.78625 0,-0.45325 0.9919,-0.814 2.2204,-0.814 z m 0,22.2555 c -1.2285,0 -2.2204,-0.36075 -2.2204,-0.814 0,-0.37925 0.7098,-0.69375 1.6653,-0.78625 l 0,-5.4945 c 0,-0.4255 0.2548,-0.777 0.5551,-0.777 0.3003,0 0.5551,0.3515 0.5551,0.777 l 0,5.4945 c 0.9555,0.0925 1.6653,0.407 1.6653,0.78625 0,0.45325 -0.9919,0.814 -2.2204,0.814 z m 0,-10.31375 c -1.6926,0 -3.0576,-0.36075 -3.0576,-0.814 0,-0.45325 1.365,-0.814 3.0576,-0.814 1.6926,0 3.0576,0.36075 3.0576,0.814 0,0.45325 -1.365,0.814 -3.0576,0.814 z"
       id="use659" />
  </g>
</svg>
