<?xml version="1.0" encoding="UTF-8" standalone="no"?>
<!-- Created with Inkscape (http://www.inkscape.org/) -->

<svg
   xmlns:dc="http://purl.org/dc/elements/1.1/"
   xmlns:cc="http://creativecommons.org/ns#"
   xmlns:rdf="http://www.w3.org/1999/02/22-rdf-syntax-ns#"
   xmlns:svg="http://www.w3.org/2000/svg"
   xmlns="http://www.w3.org/2000/svg"
   xmlns:sodipodi="http://sodipodi.sourceforge.net/DTD/sodipodi-0.dtd"
   xmlns:inkscape="http://www.inkscape.org/namespaces/inkscape"
   width="64"
   height="88"
   id="svg2"
   version="1.1"
   inkscape:version="0.47pre4 r22446"
   sodipodi:docname="MJBamb7.svg">
  <defs
     id="defs4" />
  <sodipodi:namedview
     id="base"
     pagecolor="#ffffff"
     bordercolor="#666666"
     borderopacity="1.0"
     inkscape:pageopacity="0.0"
     inkscape:pageshadow="2"
     inkscape:zoom="1.4"
     inkscape:cx="113.87893"
     inkscape:cy="-133.93153"
     inkscape:document-units="px"
     inkscape:current-layer="layer1"
     showgrid="false"
     inkscape:window-width="855"
     inkscape:window-height="838"
     inkscape:window-x="756"
     inkscape:window-y="107"
     inkscape:window-maximized="0" />
  <metadata
     id="metadata7">
    <rdf:RDF>
      <cc:Work
         rdf:about="">
        <dc:format>image/svg+xml</dc:format>
        <dc:type
           rdf:resource="http://purl.org/dc/dcmitype/StillImage" />
        <dc:title></dc:title>
      </cc:Work>
    </rdf:RDF>
  </metadata>
  <g
     inkscape:label="Layer 1"
     inkscape:groupmode="layer"
     id="layer1"
     transform="translate(-401.14285,-332.07645)">
    <g
       id="use251"
       transform="translate(401.14285,332.07645)">
      <path
         id="path5294"
         d="M 9,0 C 8.47,0 7.96,0.21 7.59,0.59 l -7,7 C 0.21,7.96 0,8.47 0,9 v 77 c 0,1.1 0.9,2 2,2 h 53 c 0.53,0 1.04,-0.21 1.41,-0.59 l 7,-7 C 63.79,80.04 64,79.53 64,79 V 2 C 64,0.9 63.1,0 62,0 H 9 z" />
      <path
         style="fill:#9f9f9f"
         id="path5296"
         d="m 11.75,78.25 -9,9 h 9 H 55 c 0.33,0 0.65,-0.13 0.88,-0.37 l 7,-7 c 0.23,-0.23 0.37,-1.3 0.37,-1.63 h -51.5 z" />
      <path
         style="fill:#d7d7d7"
         id="path5298"
         d="m 8.12,1.12 -7,7 C 0.88,8.35 0.75,8.67 0.75,9 v 66.25 1 9 l 2,2 7,-7 v -4 -1 -74.5 c -0.33,0 -1.4,0.13 -1.63,0.37 z" />
      <path
         style="fill:#bfbfbf"
         id="path5300"
         d="M 1.61,86.89 11.75,76.75 v -0.5 L 1.34,86.66 c 0.08,0.09 0.17,0.16 0.27,0.23 z" />
      <path
         style="fill:#b7b7b7"
         id="path5302"
         d="m 1.93,87.07 9.82,-9.82 v -0.5 L 1.61,86.89 c 0.1,0.07 0.21,0.13 0.32,0.18 z" />
      <path
         style="fill:#afafaf"
         id="path5304"
         d="m 2.3,87.2 9.45,-9.45 v -0.5 l -9.82,9.82 c 0.12,0.05 0.24,0.1 0.37,0.13 z" />
      <path
         style="fill:#a7a7a7"
         id="path5306"
         d="M 11.75,77.75 2.3,87.2 c 0.14,0.03 0.29,0.05 0.45,0.05 l 9,-9 v -0.5 z" />
      <path
         style="fill:#c7c7c7"
         id="path5308"
         d="M 1.34,86.66 11.75,76.25 h -0.5 L 1.11,86.39 c 0.07,0.1 0.14,0.19 0.23,0.27 z" />
      <path
         style="fill:#cdcdcd"
         id="path5310"
         d="M 1.11,86.39 11.25,76.25 h -0.5 l -9.82,9.82 c 0.05,0.11 0.11,0.22 0.18,0.32 z" />
      <path
         style="fill:#d2d2d2"
         id="path5312"
         d="m 0.93,86.07 9.82,-9.82 h -0.5 L 0.8,85.7 c 0.03,0.13 0.08,0.25 0.13,0.37 z" />
      <path
         style="fill:#d7d7d7"
         id="path5314"
         d="m 10.25,76.25 h -0.5 l -9,9 c 0,0.15 0.02,0.3 0.05,0.45 l 9.45,-9.45 z" />
      <path
         style="fill:#f6f6f6"
         id="path5316"
         d="M 63.25,78.25 V 2.75 c 0,-1.1 -0.9,-2 -2,-2 h -50.5 c -1.1,0 -2,0.9 -2,2 v 75.5 c 0,1.1 0.9,2 2,2 h 50.5 c 1.1,0 2,-0.9 2,-2 z" />
      <path
         style="fill:#ffffff"
         id="path5318"
         d="M 8.75,78.25 V 2.75 c 0,-1.1 0.9,-2 2,-2 h -1 c -1.1,0 -2,0.9 -2,2 v 75.5 c 0,1.1 0.9,2 2,2 h 1 c -1.1,0 -2,-0.9 -2,-2 z" />
    </g>
    <path
       style="fill:#006c00"
       d="m 428.67285,355.97145 c 0,-0.7084 -0.9125,-1.3167 -2.2338,-1.6093 l 0,-5.3669 c 1.3213,-0.2926 2.2338,-0.9009 2.2338,-1.6093 0,-1.001 -1.7958,-1.8095 -4.015,-1.8095 -2.2192,0 -4.015,0.8085 -4.015,1.8095 0,0.7084 0.9125,1.3167 2.2338,1.6093 l 0,5.3669 c -1.3213,0.2926 -2.2338,0.9009 -2.2338,1.6093 0,0.7084 0.9125,1.3167 2.2338,1.6093 l 0,5.3592 c -1.3213,0.3003 -2.2338,0.9086 -2.2338,1.617 0,1.001 1.7958,1.8095 4.015,1.8095 2.2192,0 4.015,-0.8085 4.015,-1.8095 0,-0.7084 -0.9125,-1.3167 -2.2338,-1.6093 l 0,-5.3592 c 1.3213,-0.3003 2.2338,-0.9086 2.2338,-1.617 z m -4.015,-9.2631 c 0.9855,0 1.7812,0.3003 1.7812,0.6776 0,0.3157 -0.5694,0.5775 -1.3359,0.6545 l 0,4.5738 c 0,0.3542 -0.2044,0.6468 -0.4453,0.6468 -0.2409,0 -0.4453,-0.2926 -0.4453,-0.6468 l 0,-4.5738 c -0.7665,-0.077 -1.3359,-0.3388 -1.3359,-0.6545 0,-0.3773 0.7957,-0.6776 1.7812,-0.6776 z m 0,18.5262 c -0.9855,0 -1.7812,-0.3003 -1.7812,-0.6776 0,-0.3157 0.5694,-0.5775 1.3359,-0.6545 l 0,-4.5738 c 0,-0.3542 0.2044,-0.6468 0.4453,-0.6468 0.2409,0 0.4453,0.2926 0.4453,0.6468 l 0,4.5738 c 0.7665,0.077 1.3359,0.3388 1.3359,0.6545 0,0.3773 -0.7957,0.6776 -1.7812,0.6776 z m 0,-8.5855 c -1.3578,0 -2.4528,-0.3003 -2.4528,-0.6776 0,-0.3773 1.095,-0.6776 2.4528,-0.6776 1.3578,0 2.4528,0.3003 2.4528,0.6776 0,0.3773 -1.095,0.6776 -2.4528,0.6776 z"
       id="use717" />
    <path
       style="fill:#006c00"
       d="m 428.67285,388.97145 c 0,-0.7084 -0.9125,-1.3167 -2.2338,-1.6093 l 0,-5.3669 c 1.3213,-0.2926 2.2338,-0.9009 2.2338,-1.6093 0,-1.001 -1.7958,-1.8095 -4.015,-1.8095 -2.2192,0 -4.015,0.8085 -4.015,1.8095 0,0.7084 0.9125,1.3167 2.2338,1.6093 l 0,5.3669 c -1.3213,0.2926 -2.2338,0.9009 -2.2338,1.6093 0,0.7084 0.9125,1.3167 2.2338,1.6093 l 0,5.3592 c -1.3213,0.3003 -2.2338,0.9086 -2.2338,1.617 0,1.001 1.7958,1.8095 4.015,1.8095 2.2192,0 4.015,-0.8085 4.015,-1.8095 0,-0.7084 -0.9125,-1.3167 -2.2338,-1.6093 l 0,-5.3592 c 1.3213,-0.3003 2.2338,-0.9086 2.2338,-1.617 z m -4.015,-9.2631 c 0.9855,0 1.7812,0.3003 1.7812,0.6776 0,0.3157 -0.5694,0.5775 -1.3359,0.6545 l 0,4.5738 c 0,0.3542 -0.2044,0.6468 -0.4453,0.6468 -0.2409,0 -0.4453,-0.2926 -0.4453,-0.6468 l 0,-4.5738 c -0.7665,-0.077 -1.3359,-0.3388 -1.3359,-0.6545 0,-0.3773 0.7957,-0.6776 1.7812,-0.6776 z m 0,18.5262 c -0.9855,0 -1.7812,-0.3003 -1.7812,-0.6776 0,-0.3157 0.5694,-0.5775 1.3359,-0.6545 l 0,-4.5738 c 0,-0.3542 0.2044,-0.6468 0.4453,-0.6468 0.2409,0 0.4453,0.2926 0.4453,0.6468 l 0,4.5738 c 0.7665,0.077 1.3359,0.3388 1.3359,0.6545 0,0.3773 -0.7957,0.6776 -1.7812,0.6776 z m 0,-8.5855 c -1.3578,0 -2.4528,-0.3003 -2.4528,-0.6776 0,-0.3773 1.095,-0.6776 2.4528,-0.6776 1.3578,0 2.4528,0.3003 2.4528,0.6776 0,0.3773 -1.095,0.6776 -2.4528,0.6776 z"
       id="use719" />
    <path
       style="fill:#006c00"
       d="m 452.67285,355.97145 c 0,-0.7084 -0.9125,-1.3167 -2.2338,-1.6093 l 0,-5.3669 c 1.3213,-0.2926 2.2338,-0.9009 2.2338,-1.6093 0,-1.001 -1.7958,-1.8095 -4.015,-1.8095 -2.2192,0 -4.015,0.8085 -4.015,1.8095 0,0.7084 0.9125,1.3167 2.2338,1.6093 l 0,5.3669 c -1.3213,0.2926 -2.2338,0.9009 -2.2338,1.6093 0,0.7084 0.9125,1.3167 2.2338,1.6093 l 0,5.3592 c -1.3213,0.3003 -2.2338,0.9086 -2.2338,1.617 0,1.001 1.7958,1.8095 4.015,1.8095 2.2192,0 4.015,-0.8085 4.015,-1.8095 0,-0.7084 -0.9125,-1.3167 -2.2338,-1.6093 l 0,-5.3592 c 1.3213,-0.3003 2.2338,-0.9086 2.2338,-1.617 z m -4.015,-9.2631 c 0.9855,0 1.7812,0.3003 1.7812,0.6776 0,0.3157 -0.5694,0.5775 -1.3359,0.6545 l 0,4.5738 c 0,0.3542 -0.2044,0.6468 -0.4453,0.6468 -0.2409,0 -0.4453,-0.2926 -0.4453,-0.6468 l 0,-4.5738 c -0.7665,-0.077 -1.3359,-0.3388 -1.3359,-0.6545 0,-0.3773 0.7957,-0.6776 1.7812,-0.6776 z m 0,18.5262 c -0.9855,0 -1.7812,-0.3003 -1.7812,-0.6776 0,-0.3157 0.5694,-0.5775 1.3359,-0.6545 l 0,-4.5738 c 0,-0.3542 0.2044,-0.6468 0.4453,-0.6468 0.2409,0 0.4453,0.2926 0.4453,0.6468 l 0,4.5738 c 0.7665,0.077 1.3359,0.3388 1.3359,0.6545 0,0.3773 -0.7957,0.6776 -1.7812,0.6776 z m 0,-8.5855 c -1.3578,0 -2.4528,-0.3003 -2.4528,-0.6776 0,-0.3773 1.095,-0.6776 2.4528,-0.6776 1.3578,0 2.4528,0.3003 2.4528,0.6776 0,0.3773 -1.095,0.6776 -2.4528,0.6776 z"
       id="use725" />
    <path
       style="fill:#006c00"
       d="m 452.67285,388.97145 c 0,-0.7084 -0.9125,-1.3167 -2.2338,-1.6093 l 0,-5.3669 c 1.3213,-0.2926 2.2338,-0.9009 2.2338,-1.6093 0,-1.001 -1.7958,-1.8095 -4.015,-1.8095 -2.2192,0 -4.015,0.8085 -4.015,1.8095 0,0.7084 0.9125,1.3167 2.2338,1.6093 l 0,5.3669 c -1.3213,0.2926 -2.2338,0.9009 -2.2338,1.6093 0,0.7084 0.9125,1.3167 2.2338,1.6093 l 0,5.3592 c -1.3213,0.3003 -2.2338,0.9086 -2.2338,1.617 0,1.001 1.7958,1.8095 4.015,1.8095 2.2192,0 4.015,-0.8085 4.015,-1.8095 0,-0.7084 -0.9125,-1.3167 -2.2338,-1.6093 l 0,-5.3592 c 1.3213,-0.3003 2.2338,-0.9086 2.2338,-1.617 z m -4.015,-9.2631 c 0.9855,0 1.7812,0.3003 1.7812,0.6776 0,0.3157 -0.5694,0.5775 -1.3359,0.6545 l 0,4.5738 c 0,0.3542 -0.2044,0.6468 -0.4453,0.6468 -0.2409,0 -0.4453,-0.2926 -0.4453,-0.6468 l 0,-4.5738 c -0.7665,-0.077 -1.3359,-0.3388 -1.3359,-0.6545 0,-0.3773 0.7957,-0.6776 1.7812,-0.6776 z m 0,18.5262 c -0.9855,0 -1.7812,-0.3003 -1.7812,-0.6776 0,-0.3157 0.5694,-0.5775 1.3359,-0.6545 l 0,-4.5738 c 0,-0.3542 0.2044,-0.6468 0.4453,-0.6468 0.2409,0 0.4453,0.2926 0.4453,0.6468 l 0,4.5738 c 0.7665,0.077 1.3359,0.3388 1.3359,0.6545 0,0.3773 -0.7957,0.6776 -1.7812,0.6776 z m 0,-8.5855 c -1.3578,0 -2.4528,-0.3003 -2.4528,-0.6776 0,-0.3773 1.095,-0.6776 2.4528,-0.6776 1.3578,0 2.4528,0.3003 2.4528,0.6776 0,0.3773 -1.095,0.6776 -2.4528,0.6776 z"
       id="use727" />
    <path
       style="fill:#006c00"
       d="m 448.89285,361.88645 c -0.41,-0.59 -1.51,-0.57 -2.75,-0.06 l -3.11,-4.44 c 0.9,-1 1.3,-2.02 0.89,-2.61 -0.41,-0.58 -1.51,-0.57 -2.75,-0.06 l -3.11,-4.44 c 0.9,-1 1.3,-2.02 0.89,-2.61 -0.58,-0.83 -2.51,-0.47 -4.32,0.8 -1.81,1.27 -2.81,2.96 -2.23,3.79 0.41,0.59 1.51,0.57 2.75,0.06 l 3.11,4.44 c -0.9,1 -1.3,2.02 -0.89,2.61 0.41,0.59 1.51,0.57 2.75,0.06 l 3.11,4.44 c -0.9,1 -1.3,2.02 -0.89,2.61 0.58,0.83 2.51,0.47 4.32,-0.8 1.81,-1.27 2.81,-2.96 2.23,-3.79 z m -10.56,-7.33 -2.65,-3.79 c -0.67,0.38 -1.29,0.49 -1.47,0.22 -0.22,-0.31 0.26,-1.02 1.06,-1.58 0.8,-0.56 1.63,-0.77 1.85,-0.46 0.18,0.26 -0.13,0.8 -0.71,1.3 l 2.65,3.79 c 0.21,0.3 0.21,0.65 0.01,0.79 -0.2,0.15 -0.53,0.02 -0.74,-0.27 z m 0.31,3.92 c -0.22,-0.31 0.5,-1.19 1.61,-1.96 1.11,-0.78 2.18,-1.15 2.4,-0.84 0.22,0.31 -0.5,1.19 -1.61,1.96 -1.11,0.77 -2.19,1.15 -2.4,0.84 z m 7.37,6.27 c -0.8,0.56 -1.63,0.77 -1.85,0.46 -0.18,-0.26 0.13,-0.8 0.71,-1.3 l -2.65,-3.79 c -0.21,-0.29 -0.21,-0.65 -0.01,-0.79 0.2,-0.14 0.53,-0.02 0.74,0.28 l 2.65,3.79 c 0.67,-0.38 1.29,-0.49 1.47,-0.22 0.22,0.29 -0.26,1 -1.06,1.57 z"
       id="path769" />
    <path
       style="fill:#006c00"
       d="m 438.66285,348.47645 c -1.81,-1.27 -3.75,-1.62 -4.32,-0.8 -0.41,0.58 -0.02,1.61 0.89,2.61 l -3.11,4.44 c -1.25,-0.51 -2.35,-0.53 -2.75,0.06 -0.41,0.59 -0.02,1.61 0.89,2.61 l -3.11,4.44 c -1.25,-0.51 -2.34,-0.53 -2.75,0.06 -0.58,0.83 0.42,2.52 2.23,3.79 1.81,1.27 3.75,1.63 4.32,0.8 0.41,-0.59 0.02,-1.61 -0.89,-2.61 l 3.11,-4.44 c 1.25,0.51 2.34,0.53 2.75,-0.06 0.41,-0.58 0.02,-1.61 -0.89,-2.61 l 3.11,-4.44 c 1.25,0.51 2.34,0.53 2.75,-0.06 0.58,-0.83 -0.42,-2.52 -2.23,-3.79 z m -7.6,11.63 -2.65,3.79 c 0.58,0.5 0.9,1.04 0.71,1.31 -0.22,0.31 -1.04,0.11 -1.85,-0.46 -0.81,-0.57 -1.28,-1.27 -1.06,-1.58 0.18,-0.26 0.8,-0.15 1.47,0.22 l 2.65,-3.79 c 0.21,-0.3 0.54,-0.42 0.74,-0.28 0.2,0.14 0.2,0.5 -0.01,0.79 z m 3.58,-1.63 c -0.22,0.31 -1.29,-0.07 -2.4,-0.84 -1.11,-0.77 -1.83,-1.65 -1.61,-1.96 0.22,-0.31 1.29,0.07 2.4,0.84 1.11,0.77 1.83,1.65 1.61,1.96 z m 4.43,-7.49 c -0.18,0.26 -0.8,0.15 -1.47,-0.22 l -2.65,3.79 c -0.21,0.3 -0.54,0.42 -0.74,0.28 -0.2,-0.14 -0.2,-0.49 0.01,-0.79 l 2.65,-3.79 c -0.58,-0.5 -0.9,-1.04 -0.71,-1.3 0.22,-0.31 1.04,-0.11 1.85,0.46 0.81,0.57 1.28,1.26 1.06,1.57 z"
       id="path771" />
    <path
       style="fill:#006c00"
       d="m 440.89285,392.88645 c -0.41,-0.59 -1.51,-0.57 -2.75,-0.06 l -3.11,-4.44 c 0.9,-1 1.3,-2.02 0.89,-2.61 -0.41,-0.59 -1.51,-0.56 -2.75,-0.06 l -3.11,-4.44 c 0.9,-1 1.3,-2.02 0.89,-2.61 -0.58,-0.83 -2.51,-0.47 -4.32,0.8 -1.81,1.27 -2.81,2.96 -2.23,3.79 0.41,0.59 1.51,0.57 2.75,0.06 l 3.11,4.44 c -0.9,1 -1.3,2.02 -0.89,2.61 0.41,0.58 1.51,0.56 2.75,0.06 l 3.11,4.44 c -0.9,1 -1.3,2.02 -0.89,2.61 0.58,0.83 2.51,0.47 4.32,-0.8 1.81,-1.27 2.81,-2.96 2.23,-3.79 z m -10.56,-7.33 -2.65,-3.79 c -0.67,0.38 -1.29,0.49 -1.47,0.22 -0.22,-0.31 0.26,-1.02 1.06,-1.58 0.8,-0.56 1.63,-0.77 1.85,-0.46 0.18,0.26 -0.13,0.8 -0.71,1.3 l 2.65,3.79 c 0.21,0.29 0.21,0.65 0.01,0.79 -0.2,0.15 -0.53,0.02 -0.74,-0.27 z m 0.31,3.92 c -0.22,-0.31 0.5,-1.19 1.61,-1.96 1.11,-0.78 2.18,-1.15 2.4,-0.84 0.22,0.31 -0.5,1.19 -1.61,1.96 -1.11,0.78 -2.19,1.15 -2.4,0.84 z m 7.37,6.27 c -0.8,0.56 -1.63,0.77 -1.85,0.46 -0.18,-0.26 0.13,-0.8 0.71,-1.3 l -2.65,-3.79 c -0.21,-0.3 -0.21,-0.65 -0.01,-0.79 0.2,-0.14 0.53,-0.02 0.74,0.28 l 2.65,3.79 c 0.67,-0.38 1.29,-0.49 1.47,-0.22 0.22,0.3 -0.26,1 -1.06,1.57 z"
       id="path781" />
    <path
       style="fill:#006c00"
       d="m 446.66285,379.47645 c -1.81,-1.27 -3.75,-1.63 -4.32,-0.8 -0.41,0.59 -0.02,1.61 0.89,2.61 l -3.11,4.44 c -1.25,-0.51 -2.34,-0.53 -2.75,0.06 -0.41,0.59 -0.02,1.61 0.89,2.61 l -3.11,4.44 c -1.25,-0.51 -2.34,-0.53 -2.75,0.06 -0.58,0.83 0.42,2.52 2.23,3.79 1.81,1.27 3.75,1.62 4.32,0.8 0.41,-0.58 0.02,-1.61 -0.89,-2.61 l 3.11,-4.44 c 1.25,0.51 2.35,0.53 2.75,-0.06 0.41,-0.59 0.02,-1.61 -0.89,-2.61 l 3.11,-4.44 c 1.25,0.51 2.34,0.53 2.75,-0.06 0.58,-0.83 -0.42,-2.52 -2.23,-3.79 z m -7.6,11.63 -2.65,3.79 c 0.58,0.5 0.9,1.04 0.71,1.3 -0.22,0.31 -1.04,0.11 -1.85,-0.46 -0.8,-0.56 -1.28,-1.27 -1.06,-1.58 0.18,-0.26 0.8,-0.15 1.47,0.22 l 2.65,-3.79 c 0.21,-0.3 0.54,-0.42 0.74,-0.28 0.2,0.16 0.2,0.51 -0.01,0.8 z m 3.58,-1.63 c -0.22,0.31 -1.29,-0.07 -2.4,-0.84 -1.11,-0.77 -1.83,-1.65 -1.61,-1.96 0.22,-0.31 1.29,0.07 2.4,0.84 1.11,0.77 1.83,1.65 1.61,1.96 z m 4.43,-7.48 c -0.18,0.26 -0.8,0.15 -1.47,-0.22 l -2.65,3.79 c -0.21,0.29 -0.54,0.42 -0.74,0.28 -0.2,-0.14 -0.2,-0.49 0.01,-0.79 l 2.65,-3.79 c -0.58,-0.5 -0.9,-1.04 -0.71,-1.3 0.22,-0.31 1.04,-0.11 1.85,0.46 0.8,0.55 1.28,1.26 1.06,1.57 z"
       id="path783" />
  </g>
</svg>
